<?xml version="1.0" encoding="UTF-8" standalone="no"?>
<!DOCTYPE svg PUBLIC "-//W3C//DTD SVG 1.1//EN" "http://www.w3.org/Graphics/SVG/1.1/DTD/svg11.dtd">
<svg width="100%" height="100%" viewBox="0 0 720 720" version="1.1" xmlns="http://www.w3.org/2000/svg" xmlns:xlink="http://www.w3.org/1999/xlink" xml:space="preserve" xmlns:serif="http://www.serif.com/" style="fill-rule:evenodd;clip-rule:evenodd;stroke-linejoin:round;stroke-miterlimit:2;">
    <rect x="0" y="0" width="720" height="720" style="fill:rgb(255,191,0);fill-opacity:0.3;"/>
    <g transform="matrix(0.902782,0,0,0.902782,20.817,20.817)">
        <path d="M345.65,228.36C345.65,206.782 328.132,189.264 306.554,189.264L228.36,189.264C206.782,189.264 189.264,206.782 189.264,228.36L189.264,306.554C189.264,328.132 206.782,345.65 228.36,345.65L306.554,345.65C328.132,345.65 345.65,328.132 345.65,306.554L345.65,228.36Z" style="fill:rgb(255,191,0);fill-opacity:0.82;"/>
    </g>
    <g transform="matrix(5.52794e-17,0.902782,-0.902782,5.52794e-17,699.183,216.272)">
        <path d="M345.65,228.36C345.65,206.782 328.132,189.264 306.554,189.264L228.36,189.264C206.782,189.264 189.264,206.782 189.264,228.36L189.264,306.554C189.264,328.132 206.782,345.65 228.36,345.65L306.554,345.65C328.132,345.65 345.65,328.132 345.65,306.554L345.65,228.36Z" style="fill:rgb(255,191,0);fill-opacity:0.82;"/>
    </g>
    <g transform="matrix(0.902782,0,0,0.902782,216.272,20.817)">
        <path d="M345.65,228.36C345.65,206.782 328.132,189.264 306.554,189.264L228.36,189.264C206.782,189.264 189.264,206.782 189.264,228.36L189.264,306.554C189.264,328.132 206.782,345.65 228.36,345.65L306.554,345.65C328.132,345.65 345.65,328.132 345.65,306.554L345.65,228.36Z" style="fill:rgb(255,191,0);fill-opacity:0.82;"/>
    </g>
    <g transform="matrix(5.52794e-17,0.902782,-0.902782,5.52794e-17,503.728,216.272)">
        <path d="M345.65,228.36C345.65,206.782 328.132,189.264 306.554,189.264L228.36,189.264C206.782,189.264 189.264,206.782 189.264,228.36L189.264,306.554C189.264,328.132 206.782,345.65 228.36,345.65L306.554,345.65C328.132,345.65 345.65,328.132 345.65,306.554L345.65,228.36Z" style="fill:rgb(255,191,0);fill-opacity:0.82;"/>
    </g>
</svg>
