<?xml version="1.0" encoding="UTF-8" standalone="no"?>
<!DOCTYPE svg PUBLIC "-//W3C//DTD SVG 1.1//EN" "http://www.w3.org/Graphics/SVG/1.1/DTD/svg11.dtd">
<svg width="100%" height="100%" viewBox="0 0 3300 720" version="1.1" xmlns="http://www.w3.org/2000/svg" xmlns:xlink="http://www.w3.org/1999/xlink" xml:space="preserve" xmlns:serif="http://www.serif.com/" style="fill-rule:evenodd;clip-rule:evenodd;stroke-linejoin:round;stroke-miterlimit:2;">
    <g transform="matrix(0.901846,0,0,0.901846,-132.237,-98.9378)">
        <path d="M376,212.424C350.986,215.749 327.297,227.029 310.609,246.424C298.137,260.919 290.096,279.641 280.397,296C255.29,338.344 231.007,381.201 206.704,424C190.189,453.084 167.789,482.495 171.17,518C174.337,551.26 193.69,579.101 210.492,607C234.685,647.172 257.239,688.428 280.769,728.999C291.141,746.884 300.155,766.564 314.195,781.911C321.995,790.436 331.929,797.056 342,802.558C367.912,816.714 399.633,813 428,813L574,813C602.007,813 631.716,816.326 658,804.827C676.593,796.693 691.249,784.053 702.421,767.271C709.784,756.211 714.175,744.207 709.907,731C705.913,718.639 697.378,713.881 687,707.468C671.958,698.171 656.46,689.402 640.999,680.819C633.764,676.802 625.19,669.343 617,667.668C611.799,666.605 606.08,672.403 602,674.936C591.952,681.173 581.019,687.081 569.911,691.18C537.511,703.134 503.963,706.26 470,700.565C449.664,697.155 430.121,689.96 412,680.234C395.531,671.394 381.193,660.196 368,647C347.202,626.197 331.244,600.838 321.544,573C299.221,508.936 316.058,435.183 361.211,385.289C395.424,347.483 444.839,323.28 496,321.039C559.153,318.274 623.401,351.529 659.43,403C677.403,428.677 688.671,458.987 692.711,490C693.875,498.935 694.103,507.993 693.996,517C693.953,520.664 692.372,525.3 693.579,528.815C694.811,532.406 698.901,534.146 702.004,535.755C707.772,538.746 713.409,542.139 719,545.452C732.263,553.312 745.757,560.762 759,568.648C772.988,576.978 787.757,585.46 804,577.737C816.465,571.81 822.969,561.633 827.681,549C834.946,529.518 836.739,506.183 830.961,486C824.764,464.352 811.673,446.059 800.601,426.714C781.739,393.759 762.425,361.036 743.654,328C733.953,310.928 724.128,293.945 714.228,277C706.644,264.018 700.03,250.794 688.829,240.414C672.827,225.583 651.889,214.805 630,212.184C612.816,210.127 594.311,212 577,212L444,212L401,212C392.755,212 384.184,211.337 376,212.424M528.015,481.032C522.766,483.654 520.592,490.256 517.796,495C510.935,506.641 504.387,518.598 497.139,530C493.946,535.023 490.029,540.59 493.688,546.532C500.233,557.16 518.373,557.571 525.242,568.105C529.173,574.133 521.059,580.464 526.434,586.79C528.934,589.733 532.734,591.138 536,593.003C542.481,596.704 552.035,605.734 559.996,604.728C565.236,604.066 567.44,597.904 573.001,598.272C577.223,598.551 580.66,601.561 584.17,603.576C590.384,607.142 597.016,610.448 602.942,614.468C610.623,619.678 603.666,627.027 607.457,633.896C609.773,638.094 614.968,640.095 618.985,642.255C624.693,645.325 629.951,649.656 636,652.077C645.269,655.786 649.141,643.598 657.961,646.995C665.192,649.779 672.274,655.378 679,659.283C682.031,661.043 686.077,662.958 687.806,666.184C689.572,669.482 687.509,672.642 687.253,676C686.939,680.116 689.234,683.12 692.44,685.417C697.663,689.158 703.434,692.163 709,695.336C712.57,697.372 715.806,700.18 720,700.782C727.124,701.806 728.811,695.022 735.004,694.387C738.224,694.056 741.291,696.084 744,697.541C750.17,700.859 755.976,704.818 762,708.397C764.632,709.96 768.251,711.408 769.806,714.213C771.399,717.089 770.103,720.262 768.687,722.911C765.567,728.745 761.718,734.352 758.261,740C748.181,756.469 738.652,773.319 728.938,790C725.176,796.461 718.068,804.145 718.109,811.999C718.145,818.904 724.857,821.837 730,824.861C742.279,832.08 754.393,839.877 767,846.493C771.749,848.985 778.04,854.657 783.79,852.258C789.002,850.083 792.292,841.545 795.01,837.015C802.978,823.735 811.044,810.47 818.719,797C847.639,746.242 878.498,696.55 907.781,645.961C915.893,631.947 923.777,617.695 932.414,604C935.347,599.349 941.621,591.824 940.653,586.004C939.591,579.622 931.006,576.223 926,573.463C916.211,568.066 906.617,562.237 897,556.548C891.581,553.342 885.943,548.999 880.004,546.847C870.344,543.347 863.048,561.492 859.463,568C848.985,587.024 838.061,606.105 826.414,624.424C822.951,629.87 819.486,640.912 812.91,643.214C809.36,644.457 805.911,642.068 803,640.34C797.644,637.162 792.309,633.869 786.911,630.78C783.026,628.557 778.612,626.603 777.064,621.996C774.989,615.82 782.452,610.804 778.076,604.38C775.854,601.116 771.676,599.801 768.421,597.88C762.253,594.242 756.345,589.954 750,586.638C738.324,580.537 737.034,597.932 727.089,595.268C724.221,594.499 721.529,592.26 718.986,590.786C712.178,586.837 698.336,581.942 695.619,573.996C693.313,567.254 702.255,560.231 694.772,554.475C688.196,549.416 680.34,545.944 673.286,541.626C669.881,539.542 666.246,536.75 662.004,537.272C653.702,538.295 652.774,550.85 643,545.952C636.225,542.557 629.432,538.328 623,534.316C620.034,532.465 616.23,530.59 614.319,527.532C610.622,521.619 618.12,516.313 615.928,510.093C614.674,506.534 611.083,504.917 608,503.231C600.511,499.135 591.484,490.675 583.001,489.29C575.001,487.984 573.386,497.945 565.999,497.536C557.843,497.085 547.867,487.947 540.911,483.92C537.164,481.751 532.382,478.85 528.015,481.032Z" style="fill:rgb(157,203,63);fill-rule:nonzero;"/>
    </g>
    <g transform="matrix(0.891568,0,0,0.891568,132.51,74.3726)">
        <path d="M1392.12,493.009C1396.62,532.98 1410.19,548.419 1450.65,551.545C1449.73,531.124 1447.07,512.888 1442.29,493.009C1538.15,477.773 1534.31,396.162 1534.27,317.402C1534.26,280.673 1537.09,240.782 1512.09,210.57C1481.98,174.173 1427.24,172.254 1383.75,176.03C1297.76,183.501 1285.82,254.475 1283.11,325.757C1279.89,409.959 1290.23,487.712 1392.12,493.009ZM2311.96,451.198C2283.86,451.198 2246.42,457.183 2221.09,442.603C2183.32,420.857 2178.95,353.042 2207.85,322.189C2235.01,293.195 2270.7,315.999 2298.39,297.8C2313.06,288.158 2305.8,270.31 2292.54,263.879C2168.38,203.652 2086.67,376.198 2158.96,466.019C2193.48,508.911 2301.57,513.466 2311.96,451.198ZM2345.41,300.677C2397.33,300.711 2452.63,297.2 2462.48,359.213C2430.12,359.213 2384.49,351.46 2355.68,369.072C2319.42,391.241 2319.28,462.157 2355.68,484.414C2394.61,508.213 2470.47,492.479 2512.66,484.647C2514.63,428.866 2536.94,334.714 2498.12,287.25C2463.95,245.481 2355.66,239.272 2345.41,300.677ZM3006.03,493.009L3006.03,451.198C2949.35,451.198 2912.07,453.87 2880.6,401.024C2916.23,406.402 2986.23,417.871 3016.53,392.462C3032.55,379.015 3030.01,352.54 3027.17,334.133C3017.59,272.072 2963.1,251.647 2905.69,260.653C2820.38,274.038 2803.64,417.343 2859.11,472.69C2895.27,508.778 2960.14,493.039 3006.03,493.009ZM982.365,300.677C1035.44,300.712 1086.68,297.829 1099.44,359.213C1067.08,359.213 1021.44,351.459 992.634,369.072C955.798,391.598 957.278,459.746 993.604,481.988C1034.35,506.936 1105.57,492.824 1149.61,484.647C1149.61,432.61 1169.21,329.838 1135.04,287.25C1101.59,245.559 992.901,239.993 982.365,300.677ZM3340.52,401.024C3376.12,407.956 3447.26,417.821 3477.64,392.546C3520.35,357.001 3473.84,275.909 3432.38,263.653C3398.07,253.514 3346.33,255.332 3319.06,281.049C3277.44,320.286 3280.37,443.223 3325.7,478.556C3354.79,501.221 3398.05,496.453 3432.35,492.634C3445.07,491.218 3477.43,484.585 3464.48,464.116C3451.24,443.181 3411.1,453.778 3390.85,448.539C3364.75,441.789 3353.43,422.708 3340.52,401.024ZM1576.09,258.866C1576.09,320.425 1549.94,455.831 1618.36,487.892C1639.49,497.796 1662.34,494.623 1684.79,493.634C1707.26,492.647 1743.71,498.356 1759.82,478.439C1772.31,462.996 1768.38,436.135 1768.42,417.749L1768.42,258.866C1689.41,265.021 1718.24,391.897 1718.24,451.198C1688.62,451.093 1652.32,454.372 1634.86,424.873C1602.63,370.465 1665.86,265.861 1576.09,258.866ZM2746.8,175.243L2746.8,409.386C2746.8,455.499 2739.55,497.418 2796.97,493.009L2796.97,267.228C2796.97,219.69 2803.48,179.659 2746.8,175.243ZM932.191,493.009L932.191,175.243C914.606,176.614 895.941,176.244 887.052,194.626C878.163,213 882.026,239.104 882.018,258.866L882.018,401.024C882.018,423.037 877.159,453.187 887.052,473.626C895.941,492.009 914.606,491.638 932.191,493.009ZM2654.82,175.243L2654.82,493.009C2672.4,491.638 2691.07,492.009 2699.95,473.626C2708.84,455.253 2704.98,429.147 2704.99,409.386L2704.99,267.228C2704.99,245.215 2709.85,215.065 2699.95,194.626C2691.07,176.244 2672.4,176.614 2654.82,175.243ZM1818.59,258.866L1818.59,493.009C1833.29,491.863 1850.15,492.799 1860.21,479.601C1873.81,461.743 1868.76,430.33 1868.76,409.386C1868.79,354.393 1891.33,264.534 1818.59,258.866ZM2604.64,493.009L2604.64,258.866C2589.94,260.012 2573.08,259.076 2563.02,272.274C2549.42,290.132 2554.48,321.545 2554.47,342.488C2554.44,397.483 2531.9,487.341 2604.64,493.009ZM3256.9,493.009L3206.72,493.009C3198.33,414.477 3201.49,337.455 3206.72,258.866L3256.9,258.866C3256.95,336.339 3261.38,413.181 3256.9,493.009ZM3106.38,493.009C3106.38,447.294 3087.43,346.702 3125.76,314.079C3142.42,299.898 3169.7,298.553 3190,292.315C3165.62,252.581 3101.23,243.577 3070.77,285.191C3044.78,320.704 3055.93,384.571 3056.21,426.111C3056.33,442.986 3053.83,465.258 3064.76,479.601C3074.82,492.799 3091.68,491.863 3106.38,493.009ZM1910.58,267.228L1910.58,493.009C1989.58,486.854 1960.75,359.978 1960.75,300.677C1984.9,300.895 2013.42,298.802 2033.35,315.247C2071.74,346.931 2052.73,447.926 2052.73,493.009L2102.91,493.009C2102.91,437.373 2124.55,322.549 2081.88,279.888C2043.64,241.649 1957.74,258.473 1910.58,267.228ZM2462.48,401.024L2378.86,401.024C2383.31,454.215 2416.93,451.163 2462.48,451.198L2462.48,401.024ZM1099.44,401.024L1015.81,401.024C1020.86,454.161 1054.29,451.163 1099.44,451.198L1099.44,401.024ZM1361,234.012C1335.01,250.404 1335.66,284.362 1334.58,311.427C1333.35,342.399 1328.84,379.558 1341.06,408.902C1358.53,450.905 1421.72,461.347 1457.11,435.661C1484.77,415.579 1483.93,381.622 1484.09,350.851C1484.45,282.126 1483.75,223.206 1400.36,225.669C1387,226.063 1372.69,226.636 1361,234.012ZM3348.88,317.402C3348.31,333.083 3345.55,344.229 3340.52,359.213L3432.51,359.213C3428.31,304.873 3395.18,298.281 3348.88,317.402ZM2980.94,359.213L2976.52,347.534C2952.31,292.79 2898.29,293.06 2880.6,359.213L2980.94,359.213ZM3218.07,184.296C3190.71,200.681 3219.3,237.99 3244.87,223.017C3273.22,206.422 3244.4,168.535 3218.07,184.296ZM2567.91,183.993C2544.38,203.009 2576.64,241.541 2599.26,219.92C2620.94,199.212 2591.07,165.276 2567.91,183.993ZM1823.76,183.993C1799.93,202.822 1832.14,241.243 1855.23,219.92C1878.26,198.659 1847.45,165.271 1823.76,183.993Z" style="fill:rgb(157,203,63);"/>
    </g>
</svg>
