<?xml version="1.0" encoding="UTF-8" standalone="no"?>
<!DOCTYPE svg PUBLIC "-//W3C//DTD SVG 1.1//EN" "http://www.w3.org/Graphics/SVG/1.1/DTD/svg11.dtd">
<svg width="100%" height="100%" viewBox="0 0 720 720" version="1.1" xmlns="http://www.w3.org/2000/svg" xmlns:xlink="http://www.w3.org/1999/xlink" xml:space="preserve" xmlns:serif="http://www.serif.com/" style="fill-rule:evenodd;clip-rule:evenodd;stroke-linejoin:round;stroke-miterlimit:2;">
    <g transform="matrix(4.69813,0,0,4.69813,-320.309,-344.719)">
        <path d="M144.905,87.508L145.006,87.509L145.107,87.509L145.208,87.51L145.309,87.51L145.612,87.513L145.712,87.515L145.813,87.516L146.215,87.524L146.617,87.534L146.818,87.54L147.218,87.554L147.419,87.562L147.619,87.571L147.818,87.58L148.218,87.6L148.417,87.611L148.815,87.635L149.014,87.648L149.213,87.662L149.411,87.676L149.61,87.691L149.808,87.706L150.006,87.722L150.204,87.739L150.401,87.756L150.599,87.774L150.796,87.792L150.993,87.811L151.19,87.831L151.387,87.852L151.583,87.872L151.78,87.894L151.976,87.916L152.368,87.962L152.563,87.986L152.759,88.011L152.954,88.036L153.344,88.088L153.539,88.115L153.733,88.143L153.928,88.171L154.316,88.229L154.51,88.259L154.703,88.289L154.897,88.321L155.09,88.352L155.283,88.385L155.475,88.418L155.668,88.451L155.86,88.485L156.053,88.52L156.245,88.555L156.436,88.591L156.628,88.627L156.819,88.664L157.201,88.74L157.392,88.779L157.582,88.818L157.773,88.858L158.153,88.94L158.342,88.981L158.532,89.024L158.721,89.066L159.099,89.154L159.287,89.198L159.476,89.243L159.852,89.335L160.04,89.382L160.227,89.429L160.414,89.477L160.975,89.624L161.161,89.674L161.533,89.776L161.719,89.828L162.274,89.987L162.459,90.041L162.643,90.096L162.828,90.151L163.012,90.207L163.195,90.263L163.379,90.32L163.562,90.377L163.745,90.435L164.111,90.553L164.293,90.612L164.475,90.672L164.657,90.733L164.838,90.794L165.02,90.856L165.201,90.918L165.382,90.981L165.562,91.044L165.922,91.172L166.102,91.237L166.282,91.303L166.64,91.435L166.819,91.503L166.997,91.57L167.176,91.638L167.354,91.707L167.531,91.776L167.709,91.846L167.886,91.916L168.24,92.058L168.592,92.202L168.768,92.275L168.944,92.349L169.119,92.422L169.644,92.647L169.818,92.723L169.992,92.8L170.165,92.877L170.339,92.954L170.512,93.032L170.685,93.111L170.857,93.19L171.03,93.269L171.202,93.349L171.374,93.43L171.545,93.511L172.058,93.757L172.228,93.84L172.568,94.008L172.737,94.092L172.906,94.178L173.075,94.263L173.244,94.349L173.748,94.61L173.915,94.698L174.249,94.876L174.415,94.965L174.581,95.055L174.913,95.237L175.078,95.328L175.243,95.42L175.408,95.513L175.736,95.699L175.9,95.793L176.063,95.887L176.389,96.077L176.552,96.173L176.714,96.269L176.876,96.366L177.037,96.463L177.359,96.659L177.52,96.758L177.84,96.956L178,97.056L178.477,97.359L178.793,97.563L178.951,97.666L179.108,97.769L179.422,97.977L179.734,98.187L179.89,98.293L180.2,98.505L180.355,98.612L180.509,98.719L180.817,98.935L181.123,99.153L181.276,99.263L181.428,99.373L181.58,99.484L181.731,99.594L181.883,99.706L182.034,99.818L182.184,99.93L182.634,100.269L182.783,100.384L182.932,100.498L183.228,100.728L183.524,100.96L183.671,101.077L183.817,101.194L183.964,101.312L184.11,101.429L184.69,101.905L184.834,102.026L184.978,102.146L185.264,102.388L185.407,102.51L185.549,102.632L185.833,102.878L185.974,103.001L186.115,103.125L186.255,103.249L186.535,103.499L186.952,103.877L187.228,104.131L187.365,104.258L187.502,104.386L187.639,104.515L187.775,104.643L187.911,104.773L188.046,104.902L188.182,105.032L188.316,105.163L188.451,105.293L188.585,105.424L188.984,105.82L189.248,106.086L189.38,106.22L189.642,106.488L190.032,106.893L190.161,107.029L190.29,107.166L190.418,107.302L190.546,107.439L190.674,107.577L190.801,107.714L190.927,107.853L191.054,107.991L191.18,108.13L191.305,108.269L191.555,108.549L191.679,108.69L191.803,108.83L191.926,108.972L192.05,109.113L192.294,109.397L192.416,109.54L192.537,109.683L192.658,109.827L192.779,109.97L192.899,110.115L193.019,110.259L193.257,110.549L193.493,110.841L193.61,110.987L193.844,111.281L193.96,111.428L194.076,111.576L194.191,111.724L194.306,111.873L194.421,112.021L194.535,112.171L194.648,112.32L194.762,112.47L194.874,112.62L194.987,112.771L195.098,112.922L195.21,113.073L195.321,113.225L195.431,113.376L195.541,113.529L195.651,113.681L195.76,113.834L195.869,113.988L195.977,114.141L196.085,114.295L196.192,114.45L196.299,114.604L196.406,114.759L196.512,114.915L196.617,115.07L196.722,115.226L196.827,115.383L197.035,115.697L197.138,115.854L197.241,116.012L197.547,116.486L197.648,116.645L197.748,116.805L197.848,116.964L197.948,117.124L198.047,117.285L198.145,117.445L198.244,117.606L198.341,117.767L198.535,118.091L198.727,118.415L198.917,118.741L199.012,118.905L199.105,119.068L199.199,119.232L199.292,119.397L199.384,119.561L199.476,119.726L199.568,119.892L199.659,120.057L199.839,120.389L199.928,120.556L200.017,120.722L200.106,120.889L200.282,121.225L200.369,121.392L200.455,121.561L200.541,121.729L200.627,121.898L200.712,122.067L200.796,122.237L200.881,122.406L200.964,122.576L201.047,122.747L201.13,122.917L201.212,123.088L201.293,123.259L201.455,123.603L201.615,123.947L201.694,124.119L201.85,124.465L201.928,124.639L202.005,124.813L202.233,125.335L202.307,125.51L202.382,125.685L202.456,125.861L202.529,126.036L202.602,126.212L202.674,126.388L202.746,126.565L202.817,126.741L202.959,127.095L203.166,127.629L203.302,127.985L203.369,128.164L203.435,128.343L203.501,128.523L203.567,128.702L203.632,128.882L203.76,129.242L203.824,129.423L203.886,129.604L203.949,129.785L204.01,129.966L204.072,130.148L204.132,130.329L204.192,130.511L204.252,130.694L204.311,130.876L204.485,131.425L204.541,131.609L204.598,131.793L204.653,131.977L204.709,132.161L204.763,132.345L204.871,132.715L204.924,132.9L204.976,133.086L205.028,133.271L205.13,133.643L205.18,133.83L205.23,134.016L205.279,134.203L205.375,134.577L205.422,134.765L205.469,134.952L205.515,135.14L205.561,135.329L205.651,135.705L205.695,135.894L205.781,136.272L205.865,136.652L205.906,136.841L205.946,137.032L205.986,137.222L206.025,137.412L206.064,137.603L206.14,137.985L206.177,138.177L206.213,138.368L206.285,138.752L206.353,139.136L206.387,139.329L206.42,139.522L206.484,139.908L206.515,140.101L206.545,140.295L206.575,140.488L206.605,140.682L206.634,140.877L206.662,141.071L206.689,141.265L206.743,141.655L206.768,141.85L206.794,142.045L206.842,142.437L206.865,142.632L206.888,142.828L206.91,143.025L206.932,143.221L206.953,143.418L206.973,143.614L206.993,143.811L207.012,144.008L207.03,144.206L207.048,144.403L207.066,144.601L207.114,145.195L207.128,145.393L207.143,145.592L207.156,145.79L207.169,145.989L207.193,146.387L207.204,146.587L207.215,146.786L207.224,146.986L207.234,147.186L207.25,147.586L207.257,147.786L207.264,147.987L207.27,148.187L207.276,148.388L207.28,148.589L207.285,148.79L207.288,148.991L207.29,149.092L207.295,149.596L207.295,149.697L207.296,149.798L207.296,150.202L207.295,150.303L207.295,150.404L207.294,150.505L207.293,150.606L207.292,150.706L207.291,150.807L207.29,150.908L207.288,151.009L207.285,151.21L207.28,151.411L207.276,151.612L207.27,151.813L207.264,152.013L207.257,152.214L207.25,152.414L207.242,152.614L207.234,152.814L207.224,153.014L207.215,153.214L207.204,153.413L207.193,153.613L207.181,153.812L207.169,154.011L207.156,154.21L207.143,154.408L207.128,154.607L207.114,154.805L207.098,155.003L207.082,155.201L207.066,155.399L207.048,155.597L207.03,155.794L207.012,155.992L206.993,156.189L206.973,156.386L206.953,156.582L206.932,156.779L206.91,156.975L206.888,157.172L206.865,157.368L206.842,157.563L206.818,157.759L206.794,157.955L206.768,158.15L206.743,158.345L206.716,158.54L206.689,158.735L206.662,158.929L206.634,159.123L206.605,159.318L206.575,159.512L206.545,159.705L206.515,159.899L206.484,160.092L206.452,160.285L206.42,160.478L206.387,160.671L206.353,160.864L206.319,161.056L206.285,161.248L206.249,161.44L206.213,161.632L206.177,161.823L206.14,162.015L206.102,162.206L206.064,162.397L206.025,162.588L205.986,162.778L205.946,162.968L205.906,163.159L205.865,163.348L205.823,163.538L205.781,163.728L205.738,163.917L205.695,164.106L205.651,164.295L205.606,164.483L205.561,164.671L205.515,164.86L205.469,165.048L205.422,165.235L205.375,165.423L205.327,165.61L205.279,165.797L205.23,165.984L205.18,166.17L205.13,166.357L205.079,166.543L205.028,166.729L204.976,166.914L204.924,167.1L204.871,167.285L204.817,167.47L204.763,167.655L204.709,167.839L204.653,168.023L204.598,168.207L204.541,168.391L204.485,168.575L204.427,168.758L204.369,168.941L204.311,169.124L204.252,169.306L204.192,169.489L204.132,169.671L204.072,169.852L204.01,170.034L203.949,170.215L203.886,170.396L203.824,170.577L203.76,170.758L203.696,170.938L203.632,171.118L203.567,171.298L203.501,171.477L203.435,171.657L203.369,171.836L203.302,172.015L203.234,172.193L203.166,172.371L203.097,172.549L203.028,172.727L202.959,172.905L202.888,173.082L202.817,173.259L202.746,173.435L202.674,173.612L202.602,173.788L202.529,173.964L202.456,174.139L202.382,174.315L202.307,174.49L202.233,174.665L202.157,174.839L202.081,175.013L202.005,175.187L201.928,175.361L201.85,175.535L201.772,175.708L201.694,175.881L201.615,176.053L201.535,176.225L201.455,176.397L201.374,176.569L201.293,176.741L201.212,176.912L201.13,177.083L201.047,177.253L200.964,177.424L200.881,177.594L200.796,177.763L200.712,177.933L200.627,178.102L200.541,178.271L200.455,178.439L200.369,178.608L200.282,178.775L200.194,178.943L200.106,179.111L200.017,179.278L199.928,179.444L199.839,179.611L199.749,179.777L199.659,179.943L199.568,180.108L199.476,180.274L199.384,180.439L199.292,180.603L199.199,180.768L199.105,180.932L199.012,181.095L198.917,181.259L198.822,181.422L198.727,181.585L198.631,181.747L198.535,181.909L198.438,182.071L198.341,182.233L198.244,182.394L198.145,182.555L198.047,182.715L197.948,182.876L197.848,183.036L197.748,183.195L197.648,183.355L197.547,183.514L197.445,183.672L197.343,183.83L197.241,183.988L197.138,184.146L197.035,184.303L196.931,184.46L196.827,184.617L196.722,184.774L196.617,184.93L196.512,185.085L196.406,185.241L196.299,185.396L196.192,185.55L196.085,185.705L195.977,185.859L195.869,186.012L195.76,186.166L195.651,186.319L195.541,186.471L195.431,186.624L195.321,186.775L195.21,186.927L195.098,187.078L194.987,187.229L194.874,187.38L194.762,187.53L194.648,187.68L194.535,187.829L194.421,187.979L194.306,188.127L194.191,188.276L194.076,188.424L193.96,188.572L193.844,188.719L193.727,188.866L193.61,189.013L193.493,189.159L193.375,189.305L193.257,189.451L193.138,189.596L193.019,189.741L192.899,189.885L192.779,190.03L192.658,190.173L192.537,190.317L192.416,190.46L192.294,190.603L192.172,190.745L192.05,190.887L191.926,191.028L191.803,191.17L191.679,191.31L191.555,191.451L191.43,191.591L191.305,191.731L191.18,191.87L191.054,192.009L190.927,192.147L190.801,192.286L190.674,192.423L190.546,192.561L190.418,192.698L190.29,192.834L190.161,192.971L190.032,193.107L189.902,193.242L189.772,193.377L189.642,193.512L189.511,193.646L189.38,193.78L189.248,193.914L189.116,194.047L188.984,194.18L188.851,194.312L188.718,194.444L188.585,194.576L188.451,194.707L188.316,194.837L188.182,194.968L188.046,195.098L187.911,195.227L187.775,195.357L187.639,195.485L187.502,195.614L187.365,195.742L187.228,195.869L187.09,195.996L186.952,196.123L186.813,196.249L186.674,196.375L186.535,196.501L186.395,196.626L186.255,196.751L186.115,196.875L185.974,196.999L185.833,197.122L185.691,197.245L185.549,197.368L185.407,197.49L185.264,197.612L185.121,197.733L184.978,197.854L184.834,197.974L184.69,198.095L184.545,198.214L184.4,198.333L184.255,198.452L184.11,198.571L183.964,198.688L183.817,198.806L183.671,198.923L183.524,199.04L183.376,199.156L183.228,199.272L183.08,199.387L182.932,199.502L182.783,199.616L182.634,199.731L182.484,199.844L182.334,199.957L182.184,200.07L182.034,200.182L181.883,200.294L181.731,200.406L181.58,200.516L181.428,200.627L181.276,200.737L181.123,200.847L180.97,200.956L180.817,201.065L180.663,201.173L180.509,201.281L180.355,201.388L180.2,201.495L180.045,201.601L179.89,201.707L179.734,201.813L179.578,201.918L179.422,202.023L179.265,202.127L179.108,202.231L178.951,202.334L178.793,202.437L178.635,202.539L178.477,202.641L178.318,202.742L178.159,202.843L178,202.944L177.84,203.044L177.68,203.143L177.52,203.242L177.359,203.341L177.198,203.439L177.037,203.537L176.876,203.634L176.714,203.731L176.552,203.827L176.389,203.923L176.226,204.018L176.063,204.113L175.9,204.207L175.736,204.301L175.572,204.394L175.408,204.487L175.243,204.58L175.078,204.672L174.913,204.763L174.747,204.854L174.581,204.945L174.415,205.035L174.249,205.124L174.082,205.213L173.915,205.302L173.748,205.39L173.58,205.477L173.412,205.564L173.244,205.651L173.075,205.737L172.906,205.822L172.737,205.908L172.568,205.992L172.398,206.076L172.228,206.16L172.058,206.243L171.887,206.325L171.716,206.407L171.545,206.489L171.374,206.57L171.202,206.651L171.03,206.731L170.857,206.81L170.685,206.889L170.512,206.968L170.339,207.046L170.165,207.123L169.992,207.2L169.818,207.277L169.644,207.353L169.469,207.428L169.294,207.503L169.119,207.578L168.944,207.651L168.768,207.725L168.592,207.798L168.416,207.87L168.24,207.942L168.063,208.013L167.886,208.084L167.709,208.154L167.531,208.224L167.354,208.293L167.176,208.362L166.997,208.43L166.819,208.497L166.64,208.565L166.461,208.631L166.282,208.697L166.102,208.763L165.922,208.828L165.742,208.892L165.562,208.956L165.382,209.019L165.201,209.082L165.02,209.144L164.838,209.206L164.657,209.267L164.475,209.328L164.293,209.388L164.111,209.447L163.928,209.506L163.745,209.565L163.562,209.623L163.379,209.68L163.195,209.737L163.012,209.793L162.828,209.849L162.643,209.904L162.459,209.959L162.274,210.013L162.089,210.066L161.904,210.119L161.719,210.172L161.533,210.224L161.347,210.275L161.161,210.326L160.975,210.376L160.788,210.425L160.601,210.474L160.414,210.523L160.227,210.571L160.04,210.618L159.852,210.665L159.664,210.711L159.476,210.757L159.287,210.802L159.099,210.846L158.91,210.89L158.721,210.934L158.532,210.976L158.342,211.019L158.153,211.06L157.963,211.101L157.773,211.142L157.582,211.182L157.392,211.221L157.201,211.26L157.01,211.298L156.819,211.336L156.628,211.373L156.436,211.409L156.245,211.445L156.053,211.48L155.86,211.515L155.668,211.549L155.475,211.582L155.283,211.615L155.09,211.648L154.897,211.679L154.703,211.711L154.51,211.741L154.316,211.771L154.122,211.8L153.928,211.829L153.733,211.857L153.539,211.885L153.344,211.912L153.149,211.938L152.954,211.964L152.759,211.989L152.563,212.014L152.368,212.038L152.172,212.061L151.976,212.084L151.78,212.106L151.583,212.128L151.387,212.148L151.19,212.169L150.993,212.189L150.796,212.208L150.599,212.226L150.401,212.244L150.204,212.261L150.006,212.278L149.808,212.294L149.61,212.309L149.411,212.324L149.213,212.338L149.014,212.352L148.815,212.365L148.616,212.377L148.417,212.389L148.218,212.4L148.018,212.41L147.818,212.42L147.619,212.429L147.419,212.438L147.218,212.446L147.018,212.453L146.818,212.46L146.617,212.466L146.416,212.471L146.215,212.476L146.014,212.48L145.813,212.484L145.712,212.485L145.612,212.487L145.511,212.488L145.41,212.489L145.309,212.49L145.208,212.49L145.107,212.491L145.006,212.491L144.905,212.492L144.804,212.492L144.703,212.492L144.602,212.491L144.501,212.491L144.4,212.49L144.3,212.49L144.199,212.489L144.098,212.488L143.997,212.487L143.896,212.485L143.796,212.484L143.595,212.48L143.393,212.476L143.192,212.471L142.992,212.466L142.791,212.46L142.591,212.453L142.39,212.446L142.19,212.438L141.99,212.429L141.79,212.42L141.591,212.41L141.391,212.4L141.192,212.389L140.993,212.377L140.794,212.365L140.595,212.352L140.396,212.338L140.198,212.324L139.999,212.309L139.801,212.294L139.603,212.278L139.405,212.261L139.208,212.244L139.01,212.226L138.813,212.208L138.616,212.189L138.419,212.169L138.222,212.148L138.025,212.128L137.829,212.106L137.633,212.084L137.437,212.061L137.241,212.038L137.045,212.014L136.85,211.989L136.655,211.964L136.459,211.938L136.265,211.912L136.07,211.885L135.875,211.857L135.681,211.829L135.487,211.8L135.293,211.771L135.099,211.741L134.906,211.711L134.712,211.679L134.519,211.648L134.326,211.615L134.133,211.582L133.941,211.549L133.748,211.515L133.556,211.48L133.364,211.445L133.172,211.409L132.981,211.373L132.79,211.336L132.598,211.298L132.407,211.26L132.217,211.221L132.026,211.182L131.836,211.142L131.646,211.101L131.456,211.06L131.266,211.019L131.077,210.976L130.888,210.934L130.699,210.89L130.51,210.846L130.321,210.802L130.133,210.757L129.945,210.711L129.757,210.665L129.569,210.618L129.382,210.571L129.194,210.523L129.007,210.474L128.821,210.425L128.634,210.376L128.448,210.326L128.262,210.275L128.076,210.224L127.89,210.172L127.705,210.119L127.519,210.066L127.335,210.013L127.15,209.959L126.965,209.904L126.781,209.849L126.597,209.793L126.413,209.737L126.23,209.68L126.047,209.623L125.864,209.565L125.681,209.506L125.498,209.447L125.316,209.388L125.134,209.328L124.952,209.267L124.77,209.206L124.589,209.144L124.408,209.082L124.227,209.019L124.047,208.956L123.866,208.892L123.686,208.828L123.506,208.763L123.327,208.697L123.148,208.631L122.969,208.565L122.79,208.497L122.611,208.43L122.433,208.362L122.255,208.293L122.077,208.224L121.9,208.154L121.723,208.084L121.546,208.013L121.369,207.942L121.192,207.87L121.016,207.798L120.84,207.725L120.665,207.651L120.49,207.578L120.314,207.503L120.14,207.428L119.965,207.353L119.791,207.277L119.617,207.2L119.443,207.123L119.27,207.046L119.097,206.968L118.924,206.889L118.751,206.81L118.579,206.731L118.407,206.651L118.235,206.57L118.064,206.489L117.893,206.407L117.722,206.325L117.551,206.243L117.381,206.16L117.211,206.076L117.041,205.992L116.872,205.908L116.702,205.822L116.534,205.737L116.365,205.651L116.197,205.564L116.029,205.477L115.861,205.39L115.694,205.302L115.527,205.213L115.36,205.124L115.194,205.035L115.027,204.945L114.861,204.854L114.696,204.763L114.531,204.672L114.366,204.58L114.201,204.487L114.037,204.394L113.873,204.301L113.709,204.207L113.546,204.113L113.382,204.018L113.22,203.923L113.057,203.827L112.895,203.731L112.733,203.634L112.572,203.537L112.41,203.439L112.25,203.341L112.089,203.242L111.929,203.143L111.769,203.044L111.609,202.944L111.45,202.843L111.291,202.742L111.132,202.641L110.974,202.539L110.816,202.437L110.658,202.334L110.501,202.231L110.344,202.127L110.187,202.023L110.031,201.918L109.875,201.813L109.719,201.707L109.564,201.601L109.409,201.495L109.254,201.388L109.1,201.281L108.946,201.173L108.792,201.065L108.639,200.956L108.486,200.847L108.333,200.737L108.181,200.627L108.029,200.516L107.877,200.406L107.726,200.294L107.575,200.182L107.425,200.07L107.274,199.957L107.124,199.844L106.975,199.731L106.826,199.616L106.677,199.502L106.528,199.387L106.38,199.272L106.233,199.156L106.085,199.04L105.938,198.923L105.791,198.806L105.645,198.688L105.499,198.571L105.354,198.452L105.208,198.333L105.063,198.214L104.919,198.095L104.775,197.974L104.631,197.854L104.488,197.733L104.345,197.612L104.202,197.49L104.06,197.368L103.918,197.245L103.776,197.122L103.635,196.999L103.494,196.875L103.354,196.751L103.213,196.626L103.074,196.501L102.934,196.375L102.796,196.249L102.657,196.123L102.519,195.996L102.381,195.869L102.244,195.742L102.107,195.614L101.97,195.485L101.834,195.357L101.698,195.227L101.562,195.098L101.427,194.968L101.292,194.837L101.158,194.707L101.024,194.576L100.891,194.444L100.757,194.312L100.625,194.18L100.492,194.047L100.36,193.914L100.229,193.78L100.098,193.646L99.967,193.512L99.837,193.377L99.707,193.242L99.577,193.107L99.448,192.971L99.319,192.834L99.191,192.698L99.063,192.561L98.935,192.423L98.808,192.286L98.681,192.147L98.555,192.009L98.429,191.87L98.304,191.731L98.178,191.591L98.054,191.451L97.93,191.31L97.806,191.17L97.682,191.028L97.559,190.887L97.437,190.745L97.314,190.603L97.193,190.46L97.071,190.317L96.95,190.173L96.83,190.03L96.71,189.885L96.59,189.741L96.471,189.596L96.352,189.451L96.234,189.305L96.116,189.159L95.998,189.013L95.881,188.866L95.765,188.719L95.648,188.572L95.533,188.424L95.417,188.276L95.302,188.127L95.188,187.979L95.074,187.829L94.96,187.68L94.847,187.53L94.734,187.38L94.622,187.229L94.51,187.078L94.399,186.927L94.288,186.775L94.177,186.624L94.067,186.471L93.958,186.319L93.849,186.166L93.74,186.012L93.632,185.859L93.524,185.705L93.416,185.55L93.309,185.396L93.203,185.241L93.097,185.085L92.991,184.93L92.886,184.774L92.782,184.617L92.677,184.46L92.574,184.303L92.47,184.146L92.368,183.988L92.265,183.83L92.163,183.672L92.062,183.514L91.961,183.355L91.861,183.195L91.761,183.036L91.661,182.876L91.562,182.715L91.463,182.555L91.365,182.394L91.268,182.233L91.17,182.071L91.074,181.909L90.977,181.747L90.882,181.585L90.786,181.422L90.691,181.259L90.597,181.095L90.503,180.932L90.41,180.768L90.317,180.603L90.225,180.439L90.133,180.274L90.041,180.108L89.95,179.943L89.86,179.777L89.77,179.611L89.68,179.444L89.591,179.278L89.503,179.111L89.415,178.943L89.327,178.775L89.24,178.608L89.154,178.439L89.067,178.271L88.982,178.102L88.897,177.933L88.812,177.763L88.728,177.594L88.645,177.424L88.562,177.253L88.479,177.083L88.397,176.912L88.315,176.741L88.234,176.569L88.154,176.397L88.074,176.225L87.994,176.053L87.915,175.881L87.837,175.708L87.759,175.535L87.681,175.361L87.604,175.187L87.528,175.013L87.452,174.839L87.376,174.665L87.301,174.49L87.227,174.315L87.153,174.139L87.08,173.964L87.007,173.788L86.934,173.612L86.863,173.435L86.791,173.259L86.72,173.082L86.65,172.905L86.58,172.727L86.511,172.549L86.443,172.371L86.374,172.193L86.307,172.015L86.24,171.836L86.173,171.657L86.107,171.477L86.042,171.298L85.977,171.118L85.912,170.938L85.849,170.758L85.785,170.577L85.722,170.396L85.66,170.215L85.598,170.034L85.537,169.852L85.477,169.671L85.416,169.489L85.357,169.306L85.298,169.124L85.239,168.941L85.182,168.758L85.124,168.575L85.067,168.391L85.011,168.207L84.955,168.023L84.9,167.839L84.846,167.655L84.791,167.47L84.738,167.285L84.685,167.1L84.633,166.914L84.581,166.729L84.53,166.543L84.479,166.357L84.429,166.17L84.379,165.984L84.33,165.797L84.282,165.61L84.234,165.423L84.186,165.235L84.139,165.048L84.093,164.86L84.048,164.671L84.003,164.483L83.958,164.295L83.914,164.106L83.871,163.917L83.828,163.728L83.786,163.538L83.744,163.348L83.703,163.159L83.662,162.968L83.623,162.778L83.583,162.588L83.544,162.397L83.506,162.206L83.469,162.015L83.432,161.823L83.395,161.632L83.359,161.44L83.324,161.248L83.289,161.056L83.255,160.864L83.222,160.671L83.189,160.478L83.157,160.285L83.125,160.092L83.094,159.899L83.063,159.705L83.033,159.512L83.004,159.318L82.975,159.123L82.947,158.929L82.919,158.735L82.892,158.54L82.866,158.345L82.84,158.15L82.815,157.955L82.791,157.759L82.767,157.563L82.743,157.368L82.721,157.172L82.698,156.975L82.677,156.779L82.656,156.582L82.636,156.386L82.616,156.189L82.597,155.992L82.578,155.794L82.56,155.597L82.543,155.399L82.526,155.201L82.51,155.003L82.495,154.805L82.48,154.607L82.466,154.408L82.453,154.21L82.44,154.011L82.427,153.812L82.416,153.613L82.404,153.413L82.394,153.214L82.384,153.014L82.375,152.814L82.366,152.614L82.359,152.414L82.351,152.214L82.345,152.013L82.339,151.813L82.333,151.612L82.328,151.411L82.324,151.21L82.321,151.009L82.319,150.908L82.318,150.807L82.317,150.706L82.316,150.606L82.315,150.505L82.314,150.404L82.313,150.303L82.313,150.202L82.313,150.101L82.313,150L82.313,149.899L82.313,149.798L82.313,149.697L82.314,149.596L82.315,149.495L82.316,149.394L82.317,149.294L82.318,149.193L82.319,149.092L82.321,148.991L82.324,148.79L82.328,148.589L82.333,148.388L82.339,148.187L82.345,147.987L82.351,147.786L82.359,147.586L82.366,147.386L82.375,147.186L82.384,146.986L82.394,146.786L82.404,146.587L82.416,146.387L82.427,146.188L82.44,145.989L82.453,145.79L82.466,145.592L82.48,145.393L82.495,145.195L82.51,144.997L82.526,144.799L82.543,144.601L82.56,144.403L82.578,144.206L82.597,144.008L82.616,143.811L82.636,143.614L82.656,143.418L82.677,143.221L82.698,143.025L82.721,142.828L82.743,142.632L82.767,142.437L82.791,142.241L82.815,142.045L82.84,141.85L82.866,141.655L82.892,141.46L82.919,141.265L82.947,141.071L82.975,140.877L83.004,140.682L83.033,140.488L83.063,140.295L83.094,140.101L83.125,139.908L83.157,139.715L83.189,139.522L83.222,139.329L83.255,139.136L83.289,138.944L83.324,138.752L83.359,138.56L83.395,138.368L83.432,138.177L83.469,137.985L83.506,137.794L83.544,137.603L83.583,137.412L83.623,137.222L83.662,137.032L83.703,136.841L83.744,136.652L83.786,136.462L83.828,136.272L83.871,136.083L83.914,135.894L83.958,135.705L84.003,135.517L84.048,135.329L84.093,135.14L84.139,134.952L84.186,134.765L84.234,134.577L84.282,134.39L84.33,134.203L84.379,134.016L84.429,133.83L84.479,133.643L84.53,133.457L84.581,133.271L84.633,133.086L84.685,132.9L84.738,132.715L84.791,132.53L84.846,132.345L84.9,132.161L84.955,131.977L85.011,131.793L85.067,131.609L85.124,131.425L85.182,131.242L85.239,131.059L85.298,130.876L85.357,130.694L85.416,130.511L85.477,130.329L85.537,130.148L85.598,129.966L85.66,129.785L85.722,129.604L85.785,129.423L85.849,129.242L85.912,129.062L85.977,128.882L86.042,128.702L86.107,128.523L86.173,128.343L86.24,128.164L86.307,127.985L86.374,127.807L86.443,127.629L86.511,127.451L86.58,127.273L86.65,127.095L86.72,126.918L86.791,126.741L86.863,126.565L86.934,126.388L87.007,126.212L87.08,126.036L87.153,125.861L87.227,125.685L87.301,125.51L87.376,125.335L87.452,125.161L87.528,124.987L87.604,124.813L87.681,124.639L87.759,124.465L87.837,124.292L87.915,124.119L87.994,123.947L88.074,123.775L88.154,123.603L88.234,123.431L88.315,123.259L88.397,123.088L88.479,122.917L88.562,122.747L88.645,122.576L88.728,122.406L88.812,122.237L88.897,122.067L88.982,121.898L89.067,121.729L89.154,121.561L89.24,121.392L89.327,121.225L89.415,121.057L89.503,120.889L89.591,120.722L89.68,120.556L89.77,120.389L89.86,120.223L89.95,120.057L90.041,119.892L90.133,119.726L90.225,119.561L90.317,119.397L90.41,119.232L90.503,119.068L90.597,118.905L90.691,118.741L90.786,118.578L90.882,118.415L90.977,118.253L91.074,118.091L91.17,117.929L91.268,117.767L91.365,117.606L91.463,117.445L91.562,117.285L91.661,117.124L91.761,116.964L91.861,116.805L91.961,116.645L92.062,116.486L92.163,116.328L92.265,116.17L92.368,116.012L92.47,115.854L92.574,115.697L92.677,115.54L92.782,115.383L92.886,115.226L92.991,115.07L93.097,114.915L93.203,114.759L93.309,114.604L93.416,114.45L93.524,114.295L93.632,114.141L93.74,113.988L93.849,113.834L93.958,113.681L94.067,113.529L94.177,113.376L94.288,113.225L94.399,113.073L94.51,112.922L94.622,112.771L94.734,112.62L94.847,112.47L94.96,112.32L95.074,112.171L95.188,112.021L95.302,111.873L95.417,111.724L95.533,111.576L95.648,111.428L95.765,111.281L95.881,111.134L95.998,110.987L96.116,110.841L96.234,110.695L96.352,110.549L96.471,110.404L96.59,110.259L96.71,110.115L96.83,109.97L96.95,109.827L97.071,109.683L97.193,109.54L97.314,109.397L97.437,109.255L97.559,109.113L97.682,108.972L97.806,108.83L97.93,108.69L98.054,108.549L98.178,108.409L98.304,108.269L98.429,108.13L98.555,107.991L98.681,107.853L98.808,107.714L98.935,107.577L99.063,107.439L99.191,107.302L99.319,107.166L99.448,107.029L99.577,106.893L99.707,106.758L99.837,106.623L99.967,106.488L100.098,106.354L100.229,106.22L100.36,106.086L100.492,105.953L100.625,105.82L100.757,105.688L100.891,105.556L101.024,105.424L101.158,105.293L101.292,105.163L101.427,105.032L101.562,104.902L101.698,104.773L101.834,104.643L101.97,104.515L102.107,104.386L102.244,104.258L102.381,104.131L102.519,104.004L102.657,103.877L102.796,103.751L102.934,103.625L103.074,103.499L103.213,103.374L103.354,103.249L103.494,103.125L103.635,103.001L103.776,102.878L103.918,102.755L104.06,102.632L104.202,102.51L104.345,102.388L104.488,102.267L104.631,102.146L104.775,102.026L104.919,101.905L105.063,101.786L105.208,101.667L105.354,101.548L105.499,101.429L105.645,101.312L105.791,101.194L105.938,101.077L106.085,100.96L106.233,100.844L106.38,100.728L106.528,100.613L106.677,100.498L106.826,100.384L106.975,100.269L107.124,100.156L107.274,100.043L107.425,99.93L107.575,99.818L107.726,99.706L107.877,99.594L108.029,99.484L108.181,99.373L108.333,99.263L108.486,99.153L108.639,99.044L108.792,98.935L108.946,98.827L109.1,98.719L109.254,98.612L109.409,98.505L109.564,98.399L109.719,98.293L109.875,98.187L110.031,98.082L110.187,97.977L110.344,97.873L110.501,97.769L110.658,97.666L110.816,97.563L110.974,97.461L111.132,97.359L111.291,97.258L111.45,97.157L111.609,97.056L111.769,96.956L111.929,96.857L112.089,96.758L112.25,96.659L112.41,96.561L112.572,96.463L112.733,96.366L112.895,96.269L113.057,96.173L113.22,96.077L113.382,95.982L113.546,95.887L113.709,95.793L113.873,95.699L114.037,95.606L114.201,95.513L114.366,95.42L114.531,95.328L114.696,95.237L114.861,95.146L115.027,95.055L115.194,94.965L115.36,94.876L115.527,94.787L115.694,94.698L115.861,94.61L116.029,94.523L116.197,94.436L116.365,94.349L116.534,94.263L116.702,94.178L116.872,94.092L117.041,94.008L117.211,93.924L117.381,93.84L117.551,93.757L117.722,93.675L117.893,93.593L118.064,93.511L118.235,93.43L118.407,93.349L118.579,93.269L118.751,93.19L118.924,93.111L119.097,93.032L119.27,92.954L119.443,92.877L119.617,92.8L119.791,92.723L119.965,92.647L120.14,92.572L120.314,92.497L120.49,92.422L120.665,92.349L120.84,92.275L121.016,92.202L121.192,92.13L121.369,92.058L121.546,91.987L121.723,91.916L121.9,91.846L122.077,91.776L122.255,91.707L122.433,91.638L122.611,91.57L122.79,91.503L122.969,91.435L123.148,91.369L123.327,91.303L123.506,91.237L123.686,91.172L123.866,91.108L124.047,91.044L124.227,90.981L124.408,90.918L124.589,90.856L124.77,90.794L124.952,90.733L125.134,90.672L125.316,90.612L125.498,90.553L125.681,90.494L125.864,90.435L126.047,90.377L126.23,90.32L126.413,90.263L126.597,90.207L126.781,90.151L126.965,90.096L127.15,90.041L127.335,89.987L127.519,89.934L127.705,89.881L127.89,89.828L128.076,89.776L128.262,89.725L128.448,89.674L128.634,89.624L128.821,89.575L129.007,89.526L129.194,89.477L129.382,89.429L129.569,89.382L129.757,89.335L129.945,89.289L130.133,89.243L130.321,89.198L130.51,89.154L130.699,89.11L130.888,89.066L131.077,89.024L131.266,88.981L131.456,88.94L131.646,88.899L131.836,88.858L132.026,88.818L132.217,88.779L132.407,88.74L132.598,88.702L132.79,88.664L132.981,88.627L133.172,88.591L133.364,88.555L133.556,88.52L133.748,88.485L133.941,88.451L134.133,88.418L134.326,88.385L134.519,88.352L134.712,88.321L134.906,88.289L135.099,88.259L135.293,88.229L135.487,88.2L135.681,88.171L135.875,88.143L136.07,88.115L136.265,88.088L136.459,88.062L136.655,88.036L136.85,88.011L137.045,87.986L137.241,87.962L137.437,87.939L137.633,87.916L137.829,87.894L138.025,87.872L138.222,87.852L138.419,87.831L138.616,87.811L138.813,87.792L139.01,87.774L139.208,87.756L139.405,87.739L139.603,87.722L139.801,87.706L139.999,87.691L140.198,87.676L140.396,87.662L140.595,87.648L140.794,87.635L140.993,87.623L141.192,87.611L141.391,87.6L141.591,87.59L141.79,87.58L141.99,87.571L142.19,87.562L142.39,87.554L142.591,87.547L142.791,87.54L142.992,87.534L143.192,87.529L143.393,87.524L143.595,87.52L143.796,87.516L143.896,87.515L143.997,87.513L144.098,87.512L144.199,87.511L144.3,87.51L144.4,87.51L144.501,87.509L144.602,87.509L144.703,87.508L144.905,87.508ZM144.73,104.536L144.656,104.537L144.582,104.537L144.508,104.537L144.435,104.538L144.361,104.538L144.287,104.539L144.213,104.54L144.139,104.541L144.073,104.542L143.919,104.545L143.771,104.548L143.624,104.551L143.478,104.555L143.331,104.56L143.184,104.565L143.038,104.57L142.892,104.576L142.746,104.582L142.6,104.589L142.454,104.596L142.308,104.603L142.163,104.612L142.017,104.62L141.872,104.629L141.727,104.639L141.582,104.648L141.437,104.659L141.293,104.67L141.148,104.681L141.004,104.692L140.86,104.705L140.716,104.717L140.572,104.73L140.428,104.744L140.285,104.758L140.141,104.772L139.998,104.787L139.855,104.802L139.712,104.818L139.569,104.834L139.427,104.85L139.284,104.867L139.142,104.885L139,104.903L138.858,104.921L138.716,104.94L138.574,104.959L138.432,104.978L138.291,104.998L138.15,105.019L138.009,105.04L137.868,105.061L137.727,105.083L137.586,105.105L137.446,105.128L137.306,105.151L137.165,105.174L137.025,105.198L136.886,105.223L136.746,105.247L136.606,105.272L136.467,105.298L136.328,105.324L136.189,105.351L136.05,105.377L135.911,105.405L135.772,105.432L135.634,105.461L135.496,105.489L135.358,105.518L135.22,105.547L135.082,105.577L134.944,105.607L134.807,105.638L134.67,105.669L134.532,105.701L134.395,105.732L134.259,105.765L134.122,105.797L133.986,105.831L133.849,105.864L133.713,105.898L133.577,105.932L133.441,105.967L133.306,106.002L133.17,106.038L133.035,106.074L132.9,106.11L132.765,106.147L132.63,106.184L132.495,106.222L132.361,106.26L132.227,106.298L132.092,106.337L131.958,106.376L131.825,106.416L131.691,106.456L131.558,106.496L131.424,106.537L131.291,106.578L131.158,106.62L131.026,106.662L130.893,106.704L130.761,106.747L130.628,106.79L130.496,106.834L130.365,106.878L130.233,106.922L130.101,106.967L129.97,107.012L129.839,107.058L129.708,107.104L129.577,107.15L129.446,107.197L129.316,107.244L129.186,107.291L129.056,107.339L128.926,107.387L128.796,107.436L128.667,107.485L128.537,107.535L128.408,107.584L128.279,107.635L128.15,107.685L128.022,107.736L127.893,107.788L127.765,107.839L127.637,107.891L127.509,107.944L127.382,107.997L127.254,108.05L127.127,108.104L127,108.158L126.873,108.212L126.746,108.267L126.62,108.322L126.493,108.378L126.367,108.433L126.241,108.49L126.116,108.546L125.99,108.603L125.865,108.661L125.74,108.719L125.615,108.777L125.49,108.835L125.366,108.894L125.241,108.953L125.117,109.013L124.993,109.073L124.869,109.133L124.746,109.194L124.623,109.255L124.499,109.317L124.377,109.378L124.254,109.441L124.131,109.503L124.009,109.566L123.887,109.629L123.765,109.693L123.644,109.757L123.522,109.821L123.401,109.886L123.28,109.951L123.159,110.016L123.038,110.082L122.918,110.148L122.798,110.215L122.678,110.282L122.558,110.349L122.439,110.416L122.319,110.484L122.2,110.553L122.081,110.621L121.963,110.69L121.844,110.76L121.726,110.829L121.608,110.899L121.49,110.97L121.373,111.04L121.255,111.111L121.138,111.183L121.022,111.255L120.905,111.327L120.789,111.399L120.672,111.472L120.556,111.545L120.441,111.619L120.325,111.692L120.21,111.767L120.095,111.841L119.98,111.916L119.865,111.991L119.751,112.067L119.637,112.143L119.523,112.219L119.41,112.295L119.296,112.372L119.183,112.449L119.07,112.527L118.957,112.605L118.845,112.683L118.733,112.762L118.621,112.84L118.509,112.92L118.398,112.999L118.287,113.079L118.175,113.159L118.065,113.24L117.954,113.321L117.844,113.402L117.734,113.483L117.624,113.565L117.515,113.647L117.406,113.73L117.297,113.813L117.188,113.896L117.079,113.979L116.971,114.063L116.863,114.147L116.755,114.231L116.648,114.316L116.541,114.401L116.434,114.487L116.327,114.572L116.221,114.658L116.115,114.745L116.009,114.831L115.903,114.918L115.798,115.005L115.693,115.093L115.588,115.181L115.483,115.269L115.379,115.358L115.275,115.446L115.171,115.535L115.068,115.625L114.964,115.715L114.861,115.805L114.758,115.895L114.656,115.986L114.554,116.076L114.452,116.168L114.35,116.259L114.249,116.351L114.148,116.443L114.047,116.536L113.947,116.629L113.846,116.722L113.746,116.815L113.647,116.908L113.547,117.002L113.448,117.097L113.349,117.191L113.251,117.286L113.152,117.381L113.054,117.477L112.957,117.572L112.859,117.668L112.762,117.764L112.665,117.861L112.569,117.958L112.473,118.055L112.377,118.152L112.281,118.25L112.186,118.348L112.09,118.446L111.996,118.545L111.901,118.644L111.807,118.743L111.713,118.842L111.619,118.942L111.526,119.042L111.433,119.142L111.34,119.243L111.248,119.344L111.156,119.445L111.064,119.546L110.972,119.648L110.881,119.75L110.79,119.852L110.699,119.954L110.609,120.057L110.519,120.16L110.429,120.263L110.34,120.367L110.251,120.47L110.162,120.574L110.073,120.679L109.985,120.783L109.897,120.888L109.81,120.993L109.723,121.099L109.636,121.204L109.549,121.31L109.463,121.416L109.377,121.523L109.291,121.63L109.206,121.737L109.121,121.844L109.036,121.951L108.951,122.059L108.867,122.167L108.784,122.275L108.7,122.384L108.617,122.492L108.534,122.601L108.452,122.711L108.37,122.82L108.288,122.93L108.206,123.04L108.125,123.15L108.044,123.26L107.964,123.371L107.883,123.482L107.804,123.593L107.724,123.705L107.645,123.817L107.566,123.928L107.487,124.041L107.409,124.153L107.331,124.266L107.254,124.379L107.177,124.492L107.1,124.605L107.023,124.719L106.947,124.833L106.871,124.947L106.796,125.061L106.72,125.176L106.645,125.29L106.571,125.406L106.497,125.521L106.423,125.636L106.35,125.752L106.276,125.868L106.203,125.984L106.131,126.101L106.059,126.217L105.987,126.334L105.916,126.451L105.845,126.568L105.774,126.686L105.704,126.804L105.634,126.922L105.564,127.04L105.495,127.158L105.426,127.277L105.357,127.396L105.289,127.515L105.221,127.634L105.153,127.754L105.086,127.874L105.019,127.993L104.953,128.114L104.887,128.234L104.821,128.355L104.755,128.475L104.69,128.596L104.626,128.718L104.561,128.839L104.497,128.961L104.434,129.083L104.37,129.205L104.307,129.327L104.245,129.449L104.183,129.572L104.121,129.695L104.059,129.818L103.998,129.942L103.938,130.065L103.877,130.189L103.817,130.313L103.758,130.437L103.698,130.561L103.64,130.686L103.581,130.81L103.523,130.935L103.465,131.06L103.408,131.186L103.351,131.311L103.294,131.437L103.238,131.563L103.182,131.689L103.126,131.815L103.071,131.942L103.016,132.069L102.962,132.195L102.908,132.322L102.854,132.45L102.801,132.577L102.748,132.705L102.696,132.833L102.644,132.961L102.592,133.089L102.541,133.217L102.49,133.346L102.439,133.475L102.389,133.604L102.339,133.733L102.29,133.862L102.241,133.992L102.192,134.121L102.144,134.251L102.096,134.381L102.048,134.512L102.001,134.642L101.954,134.773L101.908,134.903L101.862,135.034L101.816,135.166L101.771,135.297L101.727,135.428L101.682,135.56L101.638,135.692L101.595,135.824L101.551,135.956L101.509,136.089L101.466,136.221L101.424,136.354L101.383,136.487L101.341,136.62L101.301,136.753L101.26,136.887L101.22,137.02L101.181,137.154L101.141,137.288L101.103,137.422L101.064,137.556L101.026,137.691L100.989,137.826L100.951,137.96L100.915,138.095L100.878,138.231L100.842,138.366L100.807,138.501L100.771,138.637L100.737,138.773L100.702,138.909L100.668,139.045L100.635,139.181L100.602,139.318L100.569,139.454L100.537,139.591L100.505,139.728L100.473,139.865L100.442,140.002L100.412,140.14L100.382,140.278L100.352,140.415L100.322,140.553L100.293,140.691L100.265,140.83L100.237,140.968L100.209,141.107L100.182,141.245L100.155,141.384L100.128,141.523L100.102,141.663L100.077,141.802L100.052,141.942L100.027,142.081L100.003,142.221L99.979,142.361L99.955,142.501L99.932,142.642L99.909,142.782L99.887,142.923L99.866,143.063L99.844,143.204L99.823,143.346L99.803,143.487L99.783,143.628L99.763,143.77L99.744,143.911L99.725,144.053L99.707,144.195L99.689,144.338L99.672,144.48L99.655,144.622L99.638,144.765L99.622,144.908L99.606,145.051L99.591,145.194L99.576,145.337L99.562,145.48L99.548,145.624L99.535,145.768L99.522,145.912L99.509,146.056L99.497,146.2L99.485,146.344L99.474,146.488L99.463,146.633L99.453,146.778L99.443,146.923L99.433,147.068L99.424,147.213L99.416,147.358L99.408,147.504L99.4,147.649L99.393,147.795L99.386,147.941L99.38,148.087L99.374,148.234L99.369,148.38L99.364,148.526L99.36,148.673L99.356,148.82L99.352,148.967L99.349,149.114L99.346,149.268L99.345,149.335L99.344,149.409L99.344,149.483L99.343,149.556L99.342,149.63L99.342,149.704L99.341,149.778L99.341,150.222L99.342,150.296L99.342,150.37L99.344,150.517L99.344,150.591L99.345,150.665L99.346,150.732L99.349,150.886L99.352,151.033L99.364,151.474L99.374,151.766L99.38,151.913L99.386,152.059L99.4,152.351L99.408,152.496L99.416,152.642L99.424,152.787L99.433,152.932L99.463,153.367L99.474,153.512L99.485,153.656L99.509,153.944L99.548,154.376L99.562,154.52L99.576,154.663L99.606,154.949L99.638,155.235L99.655,155.378L99.689,155.662L99.707,155.805L99.725,155.947L99.744,156.089L99.763,156.23L99.783,156.372L99.823,156.654L99.844,156.796L99.866,156.937L99.887,157.077L99.909,157.218L99.932,157.358L99.955,157.499L100.027,157.919L100.052,158.058L100.077,158.198L100.102,158.337L100.128,158.477L100.182,158.755L100.209,158.893L100.237,159.032L100.265,159.17L100.293,159.309L100.322,159.447L100.352,159.585L100.382,159.722L100.442,159.998L100.473,160.135L100.569,160.546L100.602,160.682L100.635,160.819L100.668,160.955L100.702,161.091L100.737,161.227L100.771,161.363L100.807,161.499L100.842,161.634L100.878,161.769L100.915,161.905L100.951,162.04L100.989,162.174L101.026,162.309L101.064,162.444L101.103,162.578L101.141,162.712L101.181,162.846L101.22,162.98L101.26,163.113L101.301,163.247L101.341,163.38L101.383,163.513L101.424,163.646L101.466,163.779L101.509,163.911L101.551,164.044L101.595,164.176L101.638,164.308L101.682,164.44L101.727,164.572L101.771,164.703L101.816,164.834L101.862,164.966L101.908,165.097L101.954,165.227L102.001,165.358L102.048,165.488L102.096,165.619L102.192,165.879L102.24,166.008L102.29,166.138L102.339,166.267L102.439,166.525L102.541,166.783L102.592,166.911L102.748,167.295L102.801,167.423L102.854,167.55L102.908,167.678L102.962,167.805L103.016,167.931L103.126,168.185L103.294,168.563L103.351,168.689L103.408,168.814L103.465,168.94L103.581,169.19L103.64,169.314L103.698,169.439L103.758,169.563L103.817,169.687L103.877,169.811L103.938,169.935L103.998,170.058L104.059,170.182L104.245,170.551L104.307,170.673L104.37,170.795L104.434,170.917L104.497,171.039L104.561,171.161L104.626,171.282L104.69,171.404L104.755,171.525L104.821,171.645L104.887,171.766L104.953,171.886L105.019,172.007L105.086,172.127L105.153,172.246L105.221,172.366L105.357,172.604L105.495,172.842L105.564,172.96L105.774,173.314L105.845,173.431L105.916,173.549L105.987,173.666L106.059,173.783L106.131,173.899L106.204,174.016L106.276,174.132L106.349,174.248L106.423,174.364L106.571,174.594L106.645,174.71L106.72,174.824L106.796,174.939L106.871,175.053L107.023,175.281L107.1,175.395L107.331,175.734L107.409,175.847L107.488,175.96L107.566,176.071L107.724,176.295L107.804,176.407L107.883,176.518L107.964,176.629L108.044,176.74L108.206,176.96L108.452,177.29L108.534,177.399L108.7,177.617L108.784,177.725L108.867,177.833L108.951,177.941L109.036,178.049L109.12,178.156L109.206,178.263L109.291,178.37L109.377,178.477L109.463,178.583L109.549,178.69L109.636,178.796L109.723,178.901L109.81,179.007L109.897,179.112L109.985,179.217L110.074,179.321L110.162,179.426L110.251,179.53L110.34,179.633L110.429,179.737L110.699,180.046L111.063,180.454L111.155,180.555L111.248,180.656L111.34,180.757L111.433,180.858L111.619,181.058L111.713,181.158L111.995,181.455L112.09,181.554L112.185,181.652L112.377,181.848L112.472,181.945L112.569,182.042L112.665,182.139L112.957,182.428L113.055,182.524L113.153,182.619L113.25,182.714L113.448,182.904L113.547,182.997L113.647,183.092L113.747,183.185L113.846,183.278L113.947,183.372L114.047,183.464L114.148,183.557L114.35,183.741L114.554,183.923L114.656,184.015L114.759,184.105L114.861,184.195L115.067,184.375L115.171,184.465L115.275,184.554L115.379,184.642L115.483,184.731L115.798,184.995L115.903,185.082L116.009,185.169L116.114,185.255L116.221,185.342L116.327,185.428L116.434,185.514L116.755,185.769L117.079,186.021L117.515,186.353L117.624,186.435L117.734,186.517L117.954,186.679L118.176,186.841L118.398,187.001L118.509,187.08L118.621,187.16L118.733,187.238L118.845,187.317L118.957,187.395L119.183,187.551L119.296,187.628L119.41,187.705L119.523,187.781L119.751,187.933L119.866,188.009L119.98,188.084L120.095,188.159L120.21,188.233L120.325,188.308L120.44,188.381L120.556,188.455L120.673,188.528L120.789,188.601L121.021,188.745L121.139,188.817L121.255,188.889L121.373,188.96L121.49,189.03L121.608,189.101L121.726,189.171L121.844,189.24L121.963,189.31L122.082,189.379L122.2,189.447L122.319,189.515L122.439,189.584L122.558,189.651L122.918,189.852L123.038,189.918L123.159,189.983L123.28,190.049L123.522,190.179L123.644,190.243L123.765,190.307L123.887,190.371L124.131,190.497L124.254,190.56L124.376,190.622L124.5,190.684L124.869,190.867L125.241,191.047L125.366,191.106L125.49,191.165L125.99,191.397L126.115,191.454L126.242,191.51L126.367,191.567L126.493,191.622L126.62,191.678L126.746,191.733L126.873,191.788L127.254,191.95L127.382,192.003L127.509,192.056L127.637,192.109L127.765,192.161L127.894,192.213L128.15,192.315L128.537,192.465L128.667,192.515L128.796,192.564L128.925,192.612L129.056,192.661L129.186,192.709L129.316,192.756L129.447,192.803L129.577,192.85L129.97,192.988L130.101,193.033L130.233,193.078L130.365,193.122L130.496,193.166L130.628,193.21L130.761,193.253L130.893,193.296L131.025,193.338L131.291,193.422L131.424,193.463L131.558,193.504L131.824,193.584L131.959,193.624L132.227,193.702L132.495,193.778L132.63,193.816L132.765,193.853L132.899,193.89L133.035,193.926L133.17,193.962L133.306,193.998L133.442,194.033L133.577,194.068L133.713,194.102L133.85,194.136L134.122,194.202L134.259,194.235L134.395,194.268L134.532,194.299L134.67,194.331L134.807,194.362L134.945,194.393L135.082,194.423L135.22,194.453L135.496,194.511L135.634,194.539L135.772,194.568L135.911,194.595L136.05,194.623L136.188,194.649L136.328,194.676L136.606,194.728L136.886,194.778L137.025,194.802L137.165,194.826L137.306,194.849L137.586,194.895L137.868,194.939L138.291,195.002L138.433,195.022L138.574,195.041L138.858,195.079L139.284,195.133L139.427,195.15L139.569,195.166L139.855,195.198L139.998,195.213L140.142,195.228L140.428,195.256L140.572,195.27L140.716,195.283L140.86,195.295L141.004,195.308L141.148,195.319L141.293,195.33L141.437,195.341L141.582,195.352L141.727,195.361L141.872,195.371L142.017,195.38L142.163,195.388L142.308,195.397L142.453,195.404L142.599,195.411L142.746,195.418L143.038,195.43L143.184,195.435L143.478,195.445L143.624,195.449L143.771,195.452L143.919,195.455L144.072,195.458L144.139,195.459L144.361,195.462L144.434,195.462L144.508,195.463L144.657,195.463L144.731,195.464L144.878,195.464L144.952,195.463L145.101,195.463L145.174,195.462L145.248,195.462L145.322,195.461L145.395,195.46L145.47,195.459L145.537,195.458L145.69,195.455L145.837,195.452L145.985,195.449L146.131,195.445L146.277,195.44L146.425,195.435L146.571,195.43L146.717,195.424L146.863,195.418L147.009,195.411L147.155,195.404L147.301,195.397L147.446,195.388L147.591,195.38L147.736,195.371L147.881,195.361L148.026,195.352L148.171,195.341L148.316,195.33L148.461,195.319L148.605,195.308L148.749,195.295L148.893,195.283L149.037,195.27L149.181,195.256L149.324,195.242L149.467,195.228L149.611,195.213L149.754,195.198L149.896,195.182L150.039,195.166L150.182,195.15L150.325,195.133L150.467,195.115L150.609,195.097L150.751,195.079L150.893,195.06L151.035,195.041L151.176,195.022L151.318,195.002L151.459,194.981L151.6,194.96L151.741,194.939L151.882,194.917L152.022,194.895L152.162,194.872L152.303,194.849L152.444,194.826L152.583,194.802L152.723,194.778L152.863,194.753L153.003,194.728L153.142,194.702L153.281,194.676L153.42,194.649L153.559,194.623L153.697,194.595L153.836,194.568L153.975,194.539L154.113,194.511L154.251,194.482L154.389,194.453L154.527,194.423L154.664,194.393L154.802,194.362L154.939,194.331L155.076,194.299L155.213,194.268L155.35,194.235L155.487,194.202L155.623,194.169L155.759,194.136L155.896,194.102L156.032,194.068L156.167,194.033L156.303,193.998L156.438,193.962L156.574,193.926L156.709,193.89L156.844,193.853L156.979,193.816L157.114,193.778L157.248,193.74L157.382,193.702L157.516,193.663L157.65,193.624L157.784,193.584L157.917,193.544L158.051,193.504L158.184,193.463L158.317,193.422L158.45,193.38L158.583,193.338L158.716,193.296L158.848,193.253L158.98,193.21L159.112,193.166L159.244,193.122L159.376,193.078L159.508,193.033L159.639,192.988L159.77,192.942L159.901,192.896L160.032,192.85L160.162,192.803L160.293,192.756L160.423,192.709L160.553,192.661L160.683,192.612L160.812,192.564L160.942,192.515L161.072,192.465L161.201,192.415L161.33,192.365L161.458,192.315L161.587,192.264L161.715,192.213L161.844,192.161L161.972,192.109L162.099,192.056L162.227,192.003L162.355,191.95L162.482,191.896L162.609,191.842L162.736,191.788L162.862,191.733L162.989,191.678L163.115,191.622L163.242,191.567L163.367,191.51L163.493,191.454L163.619,191.397L163.744,191.339L163.869,191.281L163.994,191.223L164.119,191.165L164.243,191.106L164.367,191.047L164.492,190.987L164.616,190.927L164.739,190.867L164.863,190.806L164.986,190.745L165.109,190.684L165.232,190.622L165.355,190.56L165.477,190.497L165.6,190.434L165.722,190.371L165.843,190.307L165.965,190.243L166.087,190.179L166.208,190.114L166.329,190.049L166.45,189.984L166.571,189.918L166.69,189.852L166.811,189.785L166.931,189.718L167.05,189.651L167.17,189.584L167.29,189.515L167.409,189.447L167.527,189.379L167.646,189.31L167.765,189.24L167.882,189.171L168,189.101L168.119,189.03L168.236,188.96L168.353,188.888L168.47,188.817L168.587,188.745L168.704,188.673L168.82,188.601L168.936,188.528L169.052,188.455L169.169,188.381L169.284,188.308L169.399,188.234L169.514,188.159L169.629,188.084L169.743,188.009L169.857,187.933L169.972,187.857L170.086,187.781L170.199,187.705L170.313,187.628L170.425,187.551L170.539,187.473L170.652,187.395L170.764,187.317L170.876,187.239L170.988,187.16L171.1,187.08L171.211,187.001L171.322,186.921L171.433,186.841L171.544,186.76L171.655,186.679L171.764,186.598L171.874,186.517L171.985,186.435L172.094,186.353L172.203,186.27L172.312,186.187L172.421,186.104L172.529,186.021L172.637,185.937L172.746,185.853L172.853,185.768L172.96,185.684L173.068,185.599L173.175,185.514L173.281,185.428L173.388,185.342L173.494,185.255L173.6,185.169L173.706,185.082L173.811,184.994L173.916,184.907L174.021,184.819L174.126,184.731L174.23,184.642L174.334,184.554L174.438,184.465L174.541,184.375L174.644,184.285L174.748,184.195L174.85,184.105L174.952,184.015L175.055,183.923L175.157,183.832L175.258,183.741L175.36,183.649L175.461,183.557L175.561,183.464L175.662,183.371L175.763,183.278L175.862,183.185L175.962,183.092L176.062,182.997L176.16,182.903L176.259,182.809L176.358,182.714L176.456,182.619L176.554,182.524L176.652,182.428L176.749,182.332L176.847,182.235L176.943,182.139L177.04,182.042L177.136,181.945L177.232,181.848L177.328,181.75L177.423,181.652L177.518,181.554L177.613,181.455L177.708,181.356L177.802,181.257L177.896,181.158L177.99,181.058L178.083,180.958L178.176,180.858L178.269,180.757L178.361,180.656L178.453,180.555L178.545,180.454L178.636,180.353L178.728,180.251L178.819,180.148L178.91,180.046L179,179.943L179.09,179.84L179.179,179.737L179.269,179.633L179.358,179.53L179.447,179.426L179.535,179.321L179.624,179.217L179.712,179.111L179.799,179.007L179.886,178.901L179.973,178.795L180.06,178.69L180.146,178.584L180.232,178.477L180.318,178.37L180.403,178.263L180.488,178.156L180.573,178.049L180.657,177.941L180.741,177.833L180.825,177.725L180.909,177.616L180.992,177.508L181.075,177.399L181.157,177.289L181.239,177.18L181.321,177.07L181.403,176.96L181.483,176.85L181.564,176.74L181.645,176.629L181.725,176.518L181.805,176.407L181.885,176.295L181.964,176.183L182.043,176.071L182.121,175.959L182.199,175.847L182.277,175.734L182.355,175.621L182.432,175.508L182.509,175.395L182.585,175.281L182.662,175.167L182.738,175.053L182.813,174.939L182.889,174.824L182.963,174.709L183.038,174.594L183.112,174.479L183.185,174.364L183.259,174.248L183.333,174.132L183.405,174.016L183.478,173.9L183.55,173.783L183.622,173.666L183.693,173.549L183.764,173.432L183.835,173.314L183.905,173.196L183.975,173.078L184.045,172.96L184.114,172.842L184.183,172.723L184.252,172.604L184.32,172.485L184.388,172.366L184.456,172.246L184.523,172.127L184.59,172.006L184.656,171.886L184.722,171.766L184.788,171.646L184.854,171.524L184.918,171.404L184.983,171.283L185.048,171.161L185.112,171.039L185.175,170.917L185.238,170.795L185.301,170.673L185.364,170.55L185.426,170.428L185.488,170.305L185.549,170.182L185.61,170.058L185.671,169.935L185.731,169.811L185.791,169.687L185.851,169.563L185.91,169.439L185.969,169.314L186.028,169.19L186.086,169.065L186.144,168.939L186.201,168.814L186.258,168.689L186.315,168.563L186.371,168.437L186.427,168.311L186.482,168.185L186.538,168.058L186.592,167.931L186.647,167.805L186.701,167.678L186.754,167.55L186.808,167.423L186.861,167.295L186.913,167.167L186.965,167.039L187.017,166.911L187.068,166.782L187.119,166.654L187.17,166.525L187.22,166.397L187.27,166.268L187.319,166.137L187.368,166.008L187.417,165.879L187.465,165.749L187.513,165.619L187.561,165.488L187.608,165.358L187.654,165.227L187.701,165.097L187.747,164.965L187.792,164.834L187.837,164.703L187.882,164.571L187.927,164.439L187.971,164.308L188.014,164.176L188.057,164.044L188.1,163.912L188.142,163.779L188.185,163.646L188.226,163.513L188.267,163.38L188.308,163.246L188.349,163.113L188.388,162.98L188.428,162.846L188.467,162.712L188.506,162.578L188.545,162.444L188.582,162.309L188.62,162.174L188.657,162.039L188.694,161.905L188.73,161.77L188.767,161.634L188.802,161.498L188.837,161.363L188.872,161.228L188.906,161.092L188.94,160.955L188.974,160.819L189.007,160.683L189.04,160.546L189.072,160.409L189.104,160.272L189.135,160.135L189.166,159.997L189.197,159.86L189.227,159.722L189.257,159.585L189.286,159.446L189.315,159.308L189.344,159.171L189.372,159.032L189.4,158.893L189.427,158.755L189.454,158.616L189.48,158.476L189.506,158.337L189.532,158.198L189.557,158.059L189.582,157.919L189.606,157.779L189.63,157.639L189.654,157.498L189.677,157.358L189.699,157.218L189.721,157.078L189.743,156.937L189.765,156.795L189.785,156.654L189.806,156.513L189.826,156.372L189.846,156.23L189.865,156.088L189.883,155.947L189.902,155.805L189.92,155.663L189.937,155.52L189.954,155.378L189.971,155.235L189.987,155.092L190.002,154.949L190.018,154.806L190.032,154.663L190.047,154.519L190.061,154.376L190.074,154.232L190.087,154.088L190.1,153.944L190.112,153.8L190.124,153.656L190.135,153.512L190.146,153.367L190.156,153.222L190.166,153.077L190.175,152.932L190.184,152.787L190.193,152.642L190.201,152.496L190.208,152.351L190.216,152.205L190.222,152.059L190.229,151.913L190.234,151.767L190.24,151.62L190.245,151.473L190.249,151.327L190.253,151.18L190.257,151.033L190.26,150.886L190.262,150.732L190.263,150.665L190.264,150.591L190.265,150.518L190.266,150.443L190.267,150.37L190.267,150.296L190.267,150.222L190.268,150.147L190.268,150.074L190.268,150L190.268,149.926L190.268,149.853L190.267,149.778L190.267,149.704L190.267,149.63L190.266,149.557L190.265,149.482L190.264,149.409L190.263,149.335L190.262,149.268L190.26,149.114L190.257,148.967L190.253,148.82L190.249,148.673L190.245,148.527L190.24,148.38L190.234,148.233L190.229,148.087L190.222,147.941L190.216,147.795L190.208,147.649L190.201,147.504L190.193,147.358L190.184,147.213L190.175,147.068L190.166,146.923L190.156,146.778L190.146,146.633L190.135,146.488L190.124,146.344L190.112,146.2L190.1,146.056L190.087,145.912L190.074,145.768L190.061,145.624L190.047,145.481L190.032,145.337L190.018,145.194L190.002,145.051L189.987,144.908L189.971,144.765L189.954,144.622L189.937,144.48L189.92,144.337L189.902,144.195L189.883,144.053L189.865,143.912L189.846,143.77L189.826,143.628L189.806,143.487L189.785,143.346L189.765,143.205L189.743,143.063L189.721,142.922L189.699,142.782L189.677,142.642L189.654,142.502L189.63,142.361L189.606,142.221L189.582,142.081L189.557,141.941L189.532,141.802L189.506,141.663L189.48,141.524L189.454,141.384L189.427,141.245L189.4,141.107L189.372,140.968L189.344,140.829L189.315,140.692L189.286,140.554L189.257,140.415L189.227,140.278L189.197,140.14L189.166,140.003L189.135,139.865L189.104,139.728L189.072,139.591L189.04,139.454L189.007,139.317L188.974,139.181L188.94,139.045L188.906,138.908L188.872,138.772L188.837,138.637L188.802,138.502L188.767,138.366L188.73,138.23L188.694,138.095L188.657,137.961L188.62,137.826L188.582,137.691L188.545,137.556L188.506,137.422L188.467,137.288L188.428,137.154L188.388,137.02L188.349,136.887L188.308,136.754L188.267,136.62L188.226,136.487L188.185,136.354L188.142,136.221L188.1,136.088L188.057,135.956L188.014,135.824L187.971,135.692L187.927,135.561L187.882,135.429L187.837,135.297L187.792,135.166L187.747,135.035L187.701,134.903L187.654,134.773L187.608,134.642L187.561,134.512L187.513,134.381L187.465,134.251L187.417,134.121L187.368,133.992L187.319,133.863L187.27,133.733L187.22,133.603L187.17,133.475L187.119,133.346L187.068,133.217L187.017,133.089L186.965,132.961L186.913,132.833L186.861,132.705L186.808,132.577L186.754,132.449L186.701,132.322L186.647,132.195L186.592,132.069L186.538,131.942L186.482,131.815L186.427,131.689L186.371,131.563L186.315,131.437L186.258,131.311L186.201,131.186L186.144,131.061L186.086,130.935L186.028,130.81L185.969,130.686L185.91,130.561L185.851,130.437L185.791,130.313L185.731,130.189L185.671,130.065L185.61,129.941L185.549,129.818L185.488,129.695L185.426,129.572L185.364,129.45L185.301,129.327L185.238,129.205L185.175,129.083L185.112,128.961L185.048,128.839L184.983,128.717L184.918,128.596L184.854,128.476L184.788,128.354L184.722,128.234L184.656,128.114L184.59,127.994L184.523,127.873L184.456,127.754L184.388,127.634L184.32,127.515L184.252,127.396L184.183,127.277L184.114,127.158L184.045,127.04L183.975,126.922L183.905,126.804L183.835,126.686L183.764,126.568L183.693,126.451L183.622,126.334L183.55,126.217L183.478,126.1L183.405,125.984L183.333,125.868L183.259,125.752L183.186,125.636L183.112,125.521L183.038,125.406L182.963,125.291L182.888,125.176L182.813,125.061L182.738,124.947L182.662,124.833L182.585,124.719L182.509,124.605L182.432,124.492L182.355,124.379L182.277,124.266L182.199,124.153L182.122,124.041L182.043,123.929L181.964,123.816L181.885,123.705L181.805,123.593L181.725,123.482L181.645,123.371L181.564,123.26L181.484,123.15L181.403,123.04L181.321,122.93L181.239,122.82L181.157,122.711L181.074,122.601L180.992,122.492L180.909,122.384L180.825,122.275L180.741,122.167L180.657,122.059L180.573,121.951L180.488,121.844L180.403,121.736L180.318,121.63L180.232,121.523L180.146,121.416L180.06,121.31L179.973,121.205L179.886,121.099L179.799,120.993L179.712,120.888L179.624,120.783L179.535,120.679L179.447,120.574L179.358,120.47L179.269,120.367L179.18,120.263L179.09,120.16L179,120.057L178.91,119.954L178.819,119.852L178.728,119.749L178.637,119.648L178.545,119.546L178.453,119.445L178.361,119.344L178.269,119.243L178.176,119.142L178.083,119.042L177.99,118.942L177.896,118.842L177.802,118.743L177.708,118.644L177.613,118.545L177.518,118.446L177.423,118.348L177.328,118.25L177.232,118.152L177.136,118.055L177.04,117.958L176.943,117.861L176.847,117.765L176.749,117.668L176.652,117.572L176.554,117.477L176.456,117.381L176.358,117.286L176.259,117.191L176.161,117.097L176.062,117.003L175.962,116.908L175.862,116.815L175.762,116.722L175.662,116.629L175.561,116.536L175.461,116.443L175.36,116.351L175.258,116.259L175.157,116.168L175.055,116.076L174.953,115.986L174.85,115.895L174.747,115.805L174.644,115.714L174.541,115.625L174.438,115.535L174.334,115.446L174.23,115.358L174.126,115.269L174.021,115.181L173.916,115.093L173.811,115.005L173.706,114.918L173.6,114.831L173.494,114.744L173.388,114.658L173.282,114.572L173.175,114.487L173.068,114.401L172.961,114.316L172.853,114.232L172.745,114.147L172.637,114.063L172.529,113.979L172.421,113.896L172.312,113.813L172.203,113.73L172.094,113.647L171.985,113.565L171.874,113.483L171.765,113.402L171.655,113.321L171.544,113.24L171.433,113.159L171.322,113.079L171.211,112.999L171.1,112.92L170.988,112.84L170.876,112.761L170.764,112.683L170.651,112.605L170.538,112.527L170.426,112.449L170.313,112.372L170.199,112.295L170.086,112.219L169.972,112.143L169.858,112.067L169.743,111.991L169.629,111.916L169.514,111.841L169.399,111.767L169.283,111.692L169.168,111.619L169.052,111.545L168.936,111.472L168.82,111.399L168.704,111.327L168.587,111.255L168.47,111.183L168.353,111.112L168.236,111.04L168.118,110.97L168.001,110.899L167.883,110.829L167.764,110.76L167.646,110.69L167.527,110.621L167.408,110.553L167.289,110.484L167.17,110.416L167.051,110.349L166.931,110.282L166.811,110.215L166.691,110.148L166.57,110.082L166.45,110.016L166.329,109.951L166.208,109.886L166.087,109.821L165.965,109.757L165.844,109.693L165.722,109.629L165.6,109.566L165.477,109.503L165.355,109.441L165.232,109.378L165.109,109.317L164.986,109.255L164.863,109.194L164.739,109.133L164.616,109.073L164.492,109.013L164.368,108.953L164.243,108.894L164.119,108.835L163.994,108.777L163.869,108.719L163.744,108.661L163.619,108.603L163.493,108.546L163.367,108.49L163.241,108.433L163.115,108.378L162.989,108.322L162.863,108.267L162.736,108.212L162.609,108.158L162.482,108.104L162.355,108.05L162.227,107.997L162.1,107.944L161.972,107.891L161.844,107.839L161.715,107.788L161.587,107.736L161.458,107.685L161.33,107.635L161.201,107.584L161.072,107.535L160.942,107.485L160.813,107.436L160.683,107.387L160.553,107.339L160.423,107.291L160.293,107.244L160.162,107.197L160.032,107.15L159.901,107.104L159.77,107.058L159.639,107.012L159.507,106.967L159.376,106.922L159.244,106.878L159.112,106.834L158.98,106.79L158.848,106.747L158.716,106.704L158.583,106.662L158.45,106.62L158.318,106.578L158.184,106.537L158.051,106.496L157.918,106.456L157.784,106.416L157.65,106.376L157.516,106.337L157.382,106.298L157.248,106.26L157.113,106.222L156.979,106.184L156.844,106.147L156.709,106.11L156.574,106.074L156.439,106.038L156.303,106.002L156.167,105.967L156.032,105.932L155.896,105.898L155.759,105.864L155.623,105.831L155.487,105.797L155.35,105.765L155.213,105.732L155.076,105.701L154.939,105.669L154.802,105.638L154.664,105.607L154.527,105.577L154.389,105.547L154.251,105.518L154.113,105.489L153.975,105.461L153.836,105.432L153.698,105.405L153.559,105.377L153.42,105.351L153.281,105.324L153.142,105.298L153.002,105.272L152.863,105.247L152.723,105.223L152.583,105.198L152.443,105.174L152.303,105.151L152.163,105.128L152.022,105.105L151.882,105.083L151.741,105.061L151.6,105.04L151.459,105.019L151.318,104.998L151.176,104.978L151.035,104.959L150.893,104.94L150.751,104.921L150.609,104.903L150.467,104.885L150.325,104.867L150.182,104.85L150.039,104.834L149.897,104.818L149.754,104.802L149.611,104.787L149.467,104.772L149.324,104.758L149.18,104.744L149.037,104.73L148.893,104.717L148.749,104.705L148.605,104.692L148.46,104.681L148.316,104.67L148.171,104.659L148.027,104.648L147.882,104.639L147.737,104.629L147.591,104.62L147.446,104.612L147.301,104.603L147.155,104.596L147.009,104.589L146.863,104.582L146.717,104.576L146.571,104.57L146.424,104.565L146.278,104.56L146.131,104.555L145.984,104.551L145.837,104.548L145.69,104.545L145.536,104.542L145.469,104.541L145.396,104.54L145.322,104.539L145.248,104.538L145.174,104.538L145.1,104.537L145.026,104.537L144.952,104.537L144.878,104.536L144.804,104.536L144.73,104.536Z" style="fill:rgb(151,201,60);"/>
    </g>
    <g transform="matrix(1.54266,-1.54266,4.01313,4.01313,-538.299,-98.3307)">
        <path d="M155.707,164.046L155.785,164.076L155.862,164.106L155.939,164.137L156.015,164.168L156.165,164.23L156.24,164.262L156.314,164.293L156.388,164.325L156.534,164.389L156.606,164.421L156.677,164.453L156.749,164.486L156.819,164.519L156.89,164.552L157.097,164.651L157.165,164.685L157.233,164.718L157.367,164.786L157.433,164.821L157.563,164.889L157.628,164.924L157.692,164.959L157.881,165.064L157.943,165.1L158.004,165.135L158.065,165.171L158.185,165.243L158.244,165.279L158.302,165.315L158.36,165.352L158.418,165.388L158.475,165.425L158.587,165.499L158.697,165.573L158.751,165.611L158.804,165.648L158.91,165.724L158.961,165.762L159.013,165.8L159.063,165.838L159.113,165.877L159.163,165.915L159.211,165.954L159.26,165.992L159.354,166.07L159.401,166.11L159.447,166.149L159.492,166.188L159.537,166.228L159.581,166.267L159.667,166.347L159.751,166.427L159.832,166.508L159.911,166.589L159.987,166.671L160.061,166.753L160.097,166.794L160.132,166.835L160.167,166.877L160.201,166.918L160.267,167.002L160.299,167.043L160.33,167.085L160.361,167.128L160.421,167.212L160.449,167.254L160.477,167.297L160.505,167.339L160.532,167.382L160.558,167.425L160.608,167.511L160.632,167.554L160.678,167.64L160.7,167.684L160.721,167.727L160.742,167.771L160.762,167.814L160.8,167.902L160.817,167.946L160.835,167.99L160.867,168.078L160.882,168.122L160.896,168.167L160.91,168.211L160.923,168.255L160.935,168.3L160.946,168.345L160.957,168.389L160.967,168.434L160.985,168.524L160.993,168.569L161,168.614L161.006,168.66L161.012,168.705L161.016,168.75L161.021,168.796L161.024,168.841L161.027,168.887L161.028,168.932L161.03,168.978L161.03,235.144L161.028,235.189L161.027,235.235L161.024,235.281L161.021,235.326L161.016,235.372L161.012,235.417L161.006,235.462L161,235.507L160.993,235.553L160.985,235.598L160.976,235.643L160.967,235.688L160.957,235.732L160.946,235.777L160.935,235.822L160.923,235.866L160.91,235.911L160.896,235.955L160.882,236L160.867,236.044L160.851,236.088L160.835,236.132L160.817,236.176L160.8,236.22L160.781,236.264L160.762,236.308L160.742,236.351L160.721,236.395L160.7,236.438L160.678,236.482L160.655,236.525L160.632,236.568L160.608,236.611L160.583,236.654L160.558,236.697L160.532,236.74L160.505,236.783L160.477,236.825L160.449,236.868L160.421,236.91L160.391,236.952L160.361,236.994L160.33,237.036L160.299,237.078L160.267,237.12L160.234,237.162L160.201,237.204L160.167,237.245L160.132,237.287L160.097,237.328L160.061,237.369L160.024,237.41L159.987,237.451L159.949,237.492L159.911,237.533L159.872,237.573L159.832,237.614L159.792,237.654L159.751,237.695L159.709,237.735L159.667,237.775L159.624,237.815L159.581,237.854L159.537,237.894L159.492,237.934L159.447,237.973L159.401,238.012L159.354,238.051L159.307,238.09L159.26,238.129L159.211,238.168L159.163,238.207L159.113,238.245L159.063,238.284L159.013,238.322L158.961,238.36L158.91,238.398L158.857,238.436L158.804,238.474L158.751,238.511L158.697,238.549L158.642,238.586L158.587,238.623L158.531,238.66L158.475,238.697L158.418,238.734L158.36,238.77L158.302,238.807L158.244,238.843L158.185,238.879L158.125,238.915L158.065,238.951L158.004,238.987L157.943,239.022L157.881,239.058L157.818,239.093L157.755,239.128L157.692,239.163L157.628,239.198L157.563,239.233L157.498,239.267L157.433,239.301L157.367,239.336L157.3,239.37L157.233,239.403L157.165,239.437L157.097,239.471L157.028,239.504L156.959,239.537L156.89,239.57L156.819,239.603L156.749,239.636L156.677,239.668L156.606,239.701L156.534,239.733L156.461,239.765L156.388,239.797L156.314,239.829L156.24,239.86L156.165,239.892L156.09,239.923L156.015,239.954L155.939,239.985L155.862,240.015L155.785,240.046L155.707,240.076L155.63,240.106L155.551,240.136L155.472,240.166L155.393,240.196L155.313,240.225L155.233,240.254L155.152,240.283L155.071,240.312L154.989,240.341L154.907,240.37L154.825,240.398L154.742,240.426L154.658,240.454L154.575,240.482L154.49,240.509L154.406,240.537L154.32,240.564L154.235,240.591L154.149,240.618L154.063,240.644L153.976,240.671L153.888,240.697L153.801,240.723L153.713,240.749L153.624,240.774L153.535,240.8L153.446,240.825L153.356,240.85L153.266,240.875L153.176,240.899L153.085,240.924L152.993,240.948L152.902,240.972L152.809,240.996L152.717,241.019L152.624,241.042L152.531,241.066L152.437,241.089L152.343,241.111L152.249,241.134L152.154,241.156L152.059,241.178L151.963,241.2L151.867,241.222L151.771,241.243L151.674,241.264L151.577,241.285L151.48,241.306L151.382,241.327L151.284,241.347L151.185,241.367L151.087,241.387L150.988,241.407L150.888,241.426L150.788,241.445L150.688,241.464L150.587,241.483L150.487,241.502L150.385,241.52L150.284,241.538L150.182,241.556L150.08,241.574L149.977,241.591L149.874,241.608L149.771,241.625L149.668,241.642L149.564,241.658L149.46,241.675L149.355,241.691L149.251,241.706L149.145,241.722L149.04,241.737L148.934,241.752L148.828,241.767L148.722,241.781L148.616,241.796L148.509,241.81L148.402,241.824L148.294,241.837L148.186,241.851L148.078,241.864L147.97,241.876L147.861,241.889L147.752,241.901L147.643,241.913L147.534,241.925L147.424,241.937L147.314,241.948L147.204,241.959L147.093,241.97L146.983,241.98L146.872,241.991L146.76,242.001L146.649,242.011L146.537,242.02L146.425,242.029L146.313,242.038L146.2,242.047L146.087,242.055L145.974,242.064L145.861,242.072L145.747,242.079L145.634,242.087L145.52,242.094L145.405,242.101L145.291,242.107L145.176,242.114L145.061,242.12L144.946,242.125L144.831,242.131L144.715,242.136L144.6,242.141L144.484,242.146L144.367,242.15L144.251,242.154L144.134,242.158L144.018,242.162L143.901,242.165L143.783,242.168L143.666,242.171L143.548,242.173L143.43,242.175L143.312,242.177L143.194,242.179L143.076,242.18L142.957,242.181L142.838,242.182L142.72,242.182L142.6,242.182L142.481,242.182L142.362,242.182L142.244,242.181L142.125,242.18L142.007,242.179L141.888,242.177L141.77,242.175L141.653,242.173L141.535,242.171L141.418,242.168L141.3,242.165L141.183,242.162L141.066,242.158L140.95,242.154L140.833,242.15L140.717,242.146L140.601,242.141L140.485,242.136L140.37,242.131L140.255,242.125L140.139,242.12L140.025,242.114L139.91,242.107L139.795,242.101L139.681,242.094L139.567,242.087L139.453,242.079L139.34,242.072L139.227,242.064L139.114,242.055L139.001,242.047L138.888,242.038L138.776,242.029L138.664,242.02L138.552,242.011L138.44,242.001L138.329,241.991L138.218,241.98L138.107,241.97L137.997,241.959L137.887,241.948L137.777,241.937L137.667,241.925L137.558,241.913L137.448,241.901L137.339,241.889L137.231,241.876L137.123,241.864L137.015,241.851L136.907,241.837L136.799,241.824L136.692,241.81L136.585,241.796L136.479,241.781L136.372,241.767L136.266,241.752L136.161,241.737L136.055,241.722L135.95,241.706L135.846,241.691L135.741,241.675L135.637,241.658L135.533,241.642L135.43,241.625L135.327,241.608L135.224,241.591L135.121,241.574L135.019,241.556L134.917,241.538L134.816,241.52L134.714,241.502L134.613,241.483L134.513,241.464L134.413,241.445L134.313,241.426L134.213,241.407L134.114,241.387L134.015,241.367L133.917,241.347L133.819,241.327L133.721,241.306L133.624,241.285L133.527,241.264L133.43,241.243L133.334,241.222L133.238,241.2L133.142,241.178L133.047,241.156L132.952,241.134L132.858,241.111L132.764,241.089L132.67,241.066L132.577,241.042L132.484,241.019L132.391,240.996L132.299,240.972L132.208,240.948L132.116,240.924L132.025,240.899L131.935,240.875L131.845,240.85L131.755,240.825L131.666,240.8L131.577,240.774L131.488,240.749L131.4,240.723L131.312,240.697L131.225,240.671L131.138,240.644L131.052,240.618L130.966,240.591L130.88,240.564L130.795,240.537L130.711,240.509L130.626,240.482L130.542,240.454L130.459,240.426L130.376,240.398L130.294,240.37L130.212,240.341L130.13,240.312L130.049,240.283L129.968,240.254L129.888,240.225L129.808,240.196L129.729,240.166L129.65,240.136L129.571,240.106L129.493,240.076L129.416,240.046L129.339,240.015L129.262,239.985L129.186,239.954L129.111,239.923L129.036,239.892L128.961,239.86L128.887,239.829L128.813,239.797L128.74,239.765L128.667,239.733L128.595,239.701L128.523,239.668L128.452,239.636L128.382,239.603L128.311,239.57L128.242,239.537L128.172,239.504L128.104,239.471L128.036,239.437L127.968,239.403L127.901,239.37L127.834,239.336L127.768,239.301L127.703,239.267L127.637,239.233L127.573,239.198L127.509,239.163L127.445,239.128L127.383,239.093L127.32,239.058L127.258,239.022L127.197,238.987L127.136,238.951L127.076,238.915L127.016,238.879L126.957,238.843L126.899,238.807L126.841,238.77L126.783,238.734L126.726,238.697L126.67,238.66L126.614,238.623L126.559,238.586L126.504,238.549L126.45,238.511L126.397,238.474L126.344,238.436L126.291,238.398L126.24,238.36L126.188,238.322L126.138,238.284L126.088,238.245L126.038,238.207L125.989,238.168L125.941,238.129L125.893,238.09L125.846,238.051L125.8,238.012L125.754,237.973L125.709,237.934L125.664,237.894L125.62,237.854L125.577,237.815L125.534,237.775L125.492,237.735L125.45,237.695L125.409,237.654L125.369,237.614L125.329,237.573L125.29,237.533L125.251,237.492L125.214,237.451L125.176,237.41L125.14,237.369L125.104,237.328L125.069,237.287L125.034,237.245L125,237.204L124.967,237.162L124.934,237.12L124.902,237.078L124.871,237.036L124.84,236.994L124.81,236.952L124.78,236.91L124.752,236.868L124.723,236.825L124.696,236.783L124.669,236.74L124.643,236.697L124.618,236.654L124.593,236.611L124.569,236.568L124.546,236.525L124.523,236.482L124.501,236.438L124.48,236.395L124.459,236.351L124.439,236.308L124.42,236.264L124.401,236.22L124.383,236.176L124.366,236.132L124.35,236.088L124.334,236.044L124.319,236L124.305,235.955L124.291,235.911L124.278,235.866L124.266,235.822L124.255,235.777L124.244,235.732L124.234,235.688L124.225,235.643L124.216,235.598L124.208,235.553L124.201,235.507L124.195,235.462L124.189,235.417L124.184,235.372L124.18,235.326L124.177,235.281L124.174,235.235L124.172,235.189L124.171,235.144L124.171,235.098L124.171,169.024L124.171,168.978L124.172,168.932L124.174,168.887L124.177,168.841L124.18,168.796L124.184,168.75L124.189,168.705L124.195,168.66L124.201,168.614L124.208,168.569L124.216,168.524L124.225,168.479L124.234,168.434L124.244,168.389L124.255,168.345L124.266,168.3L124.278,168.255L124.291,168.211L124.305,168.167L124.319,168.122L124.334,168.078L124.35,168.034L124.366,167.99L124.383,167.946L124.401,167.902L124.42,167.858L124.439,167.814L124.459,167.771L124.48,167.727L124.501,167.684L124.523,167.64L124.546,167.597L124.569,167.554L124.593,167.511L124.618,167.468L124.643,167.425L124.669,167.382L124.696,167.339L124.723,167.297L124.752,167.254L124.78,167.212L124.81,167.17L124.84,167.128L124.871,167.085L124.902,167.043L124.934,167.002L124.967,166.96L125,166.918L125.034,166.877L125.069,166.835L125.104,166.794L125.14,166.753L125.176,166.712L125.214,166.671L125.251,166.63L125.29,166.589L125.329,166.549L125.369,166.508L125.409,166.468L125.45,166.427L125.492,166.387L125.534,166.347L125.577,166.307L125.62,166.267L125.664,166.228L125.709,166.188L125.754,166.149L125.8,166.11L125.846,166.07L125.893,166.031L125.941,165.992L125.989,165.954L126.038,165.915L126.088,165.877L126.138,165.838L126.188,165.8L126.24,165.762L126.291,165.724L126.344,165.686L126.397,165.648L126.45,165.611L126.504,165.573L126.559,165.536L126.614,165.499L126.67,165.462L126.726,165.425L126.783,165.388L126.841,165.352L126.899,165.315L126.957,165.279L127.016,165.243L127.076,165.207L127.136,165.171L127.197,165.135L127.258,165.1L127.32,165.064L127.383,165.029L127.445,164.994L127.509,164.959L127.573,164.924L127.637,164.889L127.703,164.855L127.768,164.821L127.834,164.786L127.901,164.752L127.968,164.718L128.036,164.685L128.104,164.651L128.172,164.618L128.242,164.585L128.311,164.552L128.382,164.519L128.452,164.486L128.523,164.453L128.595,164.421L128.667,164.389L128.74,164.357L128.813,164.325L128.887,164.293L128.961,164.262L129.036,164.23L129.111,164.199L129.186,164.168L129.262,164.137L129.339,164.106L129.416,164.076L129.493,164.046L129.571,164.016L129.65,163.986L129.729,163.956L129.808,163.926L129.888,163.897L129.968,163.867L130.049,163.838L130.13,163.81L130.212,163.781L130.294,163.752L130.376,163.724L130.459,163.696L130.542,163.668L130.626,163.64L130.711,163.613L130.795,163.585L130.88,163.558L130.966,163.531L131.052,163.504L131.138,163.478L131.225,163.451L131.312,163.425L131.4,163.399L131.488,163.373L131.577,163.348L131.666,163.322L131.755,163.297L131.845,163.272L131.935,163.247L132.025,163.223L132.116,163.198L132.208,163.174L132.299,163.15L132.391,163.126L132.484,163.103L132.577,163.079L132.67,163.056L132.764,163.033L132.858,163.011L132.952,162.988L133.047,162.966L133.142,162.944L133.238,162.922L133.334,162.9L133.43,162.879L133.527,162.858L133.624,162.836L133.721,162.816L133.819,162.795L133.917,162.775L134.015,162.755L134.114,162.735L134.213,162.715L134.313,162.696L134.413,162.676L134.513,162.657L134.613,162.639L134.714,162.62L134.816,162.602L134.917,162.584L135.019,162.566L135.121,162.548L135.224,162.531L135.327,162.514L135.43,162.497L135.533,162.48L135.637,162.464L135.741,162.447L135.846,162.431L135.95,162.416L136.055,162.4L136.161,162.385L136.266,162.37L136.372,162.355L136.479,162.34L136.585,162.326L136.692,162.312L136.799,162.298L136.907,162.285L137.015,162.271L137.123,162.258L137.231,162.245L137.339,162.233L137.448,162.221L137.558,162.209L137.667,162.197L137.777,162.185L137.887,162.174L137.997,162.163L138.107,162.152L138.218,162.141L138.329,162.131L138.44,162.121L138.552,162.111L138.664,162.102L138.776,162.093L138.888,162.084L139.001,162.075L139.114,162.066L139.227,162.058L139.34,162.05L139.453,162.043L139.567,162.035L139.681,162.028L139.795,162.021L139.91,162.015L140.025,162.008L140.139,162.002L140.255,161.997L140.37,161.991L140.485,161.986L140.601,161.981L140.717,161.976L140.833,161.972L140.95,161.968L141.066,161.964L141.183,161.96L141.3,161.957L141.418,161.954L141.535,161.951L141.653,161.949L141.77,161.947L141.888,161.945L142.007,161.943L142.125,161.942L142.244,161.941L142.362,161.94L142.838,161.94L143.076,161.942L143.194,161.943L143.666,161.951L143.783,161.954L143.901,161.957L144.018,161.96L144.134,161.964L144.251,161.968L144.367,161.972L144.484,161.976L144.6,161.981L144.715,161.986L144.831,161.991L144.946,161.997L145.061,162.002L145.176,162.008L145.291,162.015L145.405,162.021L145.52,162.028L145.634,162.035L145.747,162.043L145.861,162.05L146.087,162.066L146.313,162.084L146.649,162.111L146.76,162.121L146.872,162.131L146.983,162.141L147.093,162.152L147.204,162.163L147.424,162.185L147.534,162.197L147.97,162.245L148.186,162.271L148.294,162.285L148.402,162.298L148.616,162.326L148.722,162.34L149.04,162.385L149.145,162.4L149.251,162.416L149.355,162.431L149.46,162.447L149.564,162.464L149.668,162.48L150.08,162.548L150.284,162.584L150.385,162.602L150.487,162.62L150.587,162.639L150.688,162.657L150.788,162.676L150.888,162.696L150.988,162.715L151.087,162.735L151.185,162.755L151.284,162.775L151.382,162.795L151.48,162.816L151.577,162.836L151.674,162.858L151.771,162.879L151.867,162.9L152.059,162.944L152.249,162.988L152.343,163.011L152.437,163.033L152.531,163.056L152.624,163.079L152.717,163.103L152.809,163.126L152.902,163.15L152.993,163.174L153.085,163.198L153.176,163.223L153.266,163.247L153.446,163.297L153.535,163.322L153.624,163.348L153.713,163.373L153.801,163.399L153.888,163.425L153.976,163.451L154.063,163.478L154.149,163.504L154.235,163.531L154.32,163.558L154.406,163.585L154.49,163.613L154.575,163.64L154.658,163.668L154.742,163.696L154.825,163.724L154.907,163.752L155.071,163.81L155.152,163.838L155.233,163.867L155.313,163.897L155.393,163.926L155.63,164.016L155.707,164.046Z" style="fill:rgb(151,201,60);"/>
    </g>
</svg>
