<?xml version="1.0" encoding="UTF-8" standalone="no"?>
<!DOCTYPE svg PUBLIC "-//W3C//DTD SVG 1.1//EN" "http://www.w3.org/Graphics/SVG/1.1/DTD/svg11.dtd">
<svg width="100%" height="100%" viewBox="0 0 720 720" version="1.1" xmlns="http://www.w3.org/2000/svg" xmlns:xlink="http://www.w3.org/1999/xlink" xml:space="preserve" xmlns:serif="http://www.serif.com/" style="fill-rule:evenodd;clip-rule:evenodd;stroke-linejoin:round;stroke-miterlimit:2;">
    <g transform="matrix(0.901846,0,0,0.901846,-132.237,-98.9378)">
        <path d="M376,212.424C350.986,215.749 327.297,227.029 310.609,246.424C298.137,260.919 290.096,279.641 280.397,296C255.29,338.344 231.007,381.201 206.704,424C190.189,453.084 167.789,482.495 171.17,518C174.337,551.26 193.69,579.101 210.492,607C234.685,647.172 257.239,688.428 280.769,728.999C291.141,746.884 300.155,766.564 314.195,781.911C321.995,790.436 331.929,797.056 342,802.558C367.912,816.714 399.633,813 428,813L574,813C602.007,813 631.716,816.326 658,804.827C676.593,796.693 691.249,784.053 702.421,767.271C709.784,756.211 714.175,744.207 709.907,731C705.913,718.639 697.378,713.881 687,707.468C671.958,698.171 656.46,689.402 640.999,680.819C633.764,676.802 625.19,669.343 617,667.668C611.799,666.605 606.08,672.403 602,674.936C591.952,681.173 581.019,687.081 569.911,691.18C537.511,703.134 503.963,706.26 470,700.565C449.664,697.155 430.121,689.96 412,680.234C395.531,671.394 381.193,660.196 368,647C347.202,626.197 331.244,600.838 321.544,573C299.221,508.936 316.058,435.183 361.211,385.289C395.424,347.483 444.839,323.28 496,321.039C559.153,318.274 623.401,351.529 659.43,403C677.403,428.677 688.671,458.987 692.711,490C693.875,498.935 694.103,507.993 693.996,517C693.953,520.664 692.372,525.3 693.579,528.815C694.811,532.406 698.901,534.146 702.004,535.755C707.772,538.746 713.409,542.139 719,545.452C732.263,553.312 745.757,560.762 759,568.648C772.988,576.978 787.757,585.46 804,577.737C816.465,571.81 822.969,561.633 827.681,549C834.946,529.518 836.739,506.183 830.961,486C824.764,464.352 811.673,446.059 800.601,426.714C781.739,393.759 762.425,361.036 743.654,328C733.953,310.928 724.128,293.945 714.228,277C706.644,264.018 700.03,250.794 688.829,240.414C672.827,225.583 651.889,214.805 630,212.184C612.816,210.127 594.311,212 577,212L444,212L401,212C392.755,212 384.184,211.337 376,212.424M528.015,481.032C522.766,483.654 520.592,490.256 517.796,495C510.935,506.641 504.387,518.598 497.139,530C493.946,535.023 490.029,540.59 493.688,546.532C500.233,557.16 518.373,557.571 525.242,568.105C529.173,574.133 521.059,580.464 526.434,586.79C528.934,589.733 532.734,591.138 536,593.003C542.481,596.704 552.035,605.734 559.996,604.728C565.236,604.066 567.44,597.904 573.001,598.272C577.223,598.551 580.66,601.561 584.17,603.576C590.384,607.142 597.016,610.448 602.942,614.468C610.623,619.678 603.666,627.027 607.457,633.896C609.773,638.094 614.968,640.095 618.985,642.255C624.693,645.325 629.951,649.656 636,652.077C645.269,655.786 649.141,643.598 657.961,646.995C665.192,649.779 672.274,655.378 679,659.283C682.031,661.043 686.077,662.958 687.806,666.184C689.572,669.482 687.509,672.642 687.253,676C686.939,680.116 689.234,683.12 692.44,685.417C697.663,689.158 703.434,692.163 709,695.336C712.57,697.372 715.806,700.18 720,700.782C727.124,701.806 728.811,695.022 735.004,694.387C738.224,694.056 741.291,696.084 744,697.541C750.17,700.859 755.976,704.818 762,708.397C764.632,709.96 768.251,711.408 769.806,714.213C771.399,717.089 770.103,720.262 768.687,722.911C765.567,728.745 761.718,734.352 758.261,740C748.181,756.469 738.652,773.319 728.938,790C725.176,796.461 718.068,804.145 718.109,811.999C718.145,818.904 724.857,821.837 730,824.861C742.279,832.08 754.393,839.877 767,846.493C771.749,848.985 778.04,854.657 783.79,852.258C789.002,850.083 792.292,841.545 795.01,837.015C802.978,823.735 811.044,810.47 818.719,797C847.639,746.242 878.498,696.55 907.781,645.961C915.893,631.947 923.777,617.695 932.414,604C935.347,599.349 941.621,591.824 940.653,586.004C939.591,579.622 931.006,576.223 926,573.463C916.211,568.066 906.617,562.237 897,556.548C891.581,553.342 885.943,548.999 880.004,546.847C870.344,543.347 863.048,561.492 859.463,568C848.985,587.024 838.061,606.105 826.414,624.424C822.951,629.87 819.486,640.912 812.91,643.214C809.36,644.457 805.911,642.068 803,640.34C797.644,637.162 792.309,633.869 786.911,630.78C783.026,628.557 778.612,626.603 777.064,621.996C774.989,615.82 782.452,610.804 778.076,604.38C775.854,601.116 771.676,599.801 768.421,597.88C762.253,594.242 756.345,589.954 750,586.638C738.324,580.537 737.034,597.932 727.089,595.268C724.221,594.499 721.529,592.26 718.986,590.786C712.178,586.837 698.336,581.942 695.619,573.996C693.313,567.254 702.255,560.231 694.772,554.475C688.196,549.416 680.34,545.944 673.286,541.626C669.881,539.542 666.246,536.75 662.004,537.272C653.702,538.295 652.774,550.85 643,545.952C636.225,542.557 629.432,538.328 623,534.316C620.034,532.465 616.23,530.59 614.319,527.532C610.622,521.619 618.12,516.313 615.928,510.093C614.674,506.534 611.083,504.917 608,503.231C600.511,499.135 591.484,490.675 583.001,489.29C575.001,487.984 573.386,497.945 565.999,497.536C557.843,497.085 547.867,487.947 540.911,483.92C537.164,481.751 532.382,478.85 528.015,481.032Z" style="fill:rgb(157,203,63);fill-rule:nonzero;"/>
    </g>
</svg>
