<?xml version="1.0" encoding="UTF-8" standalone="no"?>
<!DOCTYPE svg PUBLIC "-//W3C//DTD SVG 1.1//EN" "http://www.w3.org/Graphics/SVG/1.1/DTD/svg11.dtd">
<svg width="100%" height="100%" viewBox="0 0 720 720" version="1.1" xmlns="http://www.w3.org/2000/svg" xmlns:xlink="http://www.w3.org/1999/xlink" xml:space="preserve" xmlns:serif="http://www.serif.com/" style="fill-rule:evenodd;clip-rule:evenodd;stroke-linejoin:round;stroke-miterlimit:2;">
    <rect x="0" y="0" width="720" height="720" style="fill:rgb(255,191,0);fill-opacity:0.3;"/>
    <g transform="matrix(1.1071,0,0,1.1071,-110.905,-145.829)">
        <path d="M415.443,284.454C417.186,280.548 421.063,278.032 425.341,278.032C429.619,278.032 433.496,280.548 435.239,284.454C451.972,321.951 484.047,393.832 484.047,393.832C484.047,393.832 562.322,402.125 603.154,406.452C607.408,406.902 610.999,409.813 612.321,413.881C613.643,417.949 612.448,422.414 609.272,425.279C578.78,452.78 520.33,505.498 520.33,505.498C520.33,505.498 536.63,582.504 545.134,622.675C546.02,626.86 544.361,631.174 540.901,633.689C537.44,636.203 532.824,636.447 529.118,634.311C493.541,613.811 425.341,574.511 425.341,574.511C425.341,574.511 357.174,613.792 321.59,634.296C317.879,636.435 313.257,636.191 309.792,633.673C306.327,631.156 304.667,626.836 305.554,622.646C314.059,582.467 330.352,505.498 330.352,505.498C330.352,505.498 271.93,452.806 241.432,425.299C238.252,422.431 237.056,417.96 238.379,413.887C239.703,409.814 243.298,406.9 247.557,406.448C288.398,402.121 366.635,393.832 366.635,393.832C366.635,393.832 398.71,321.951 415.443,284.454Z" style="fill:rgb(255,191,0);fill-opacity:0.82;"/>
    </g>
</svg>
