<?xml version="1.0" encoding="UTF-8" standalone="no"?>
<!DOCTYPE svg PUBLIC "-//W3C//DTD SVG 1.1//EN" "http://www.w3.org/Graphics/SVG/1.1/DTD/svg11.dtd">
<svg width="100%" height="100%" viewBox="0 0 720 720" version="1.1" xmlns="http://www.w3.org/2000/svg" xmlns:xlink="http://www.w3.org/1999/xlink" xml:space="preserve" xmlns:serif="http://www.serif.com/" style="fill-rule:evenodd;clip-rule:evenodd;stroke-linejoin:round;stroke-miterlimit:2;">
    <rect x="0" y="0" width="720" height="720" style="fill:rgb(188,188,188);fill-opacity:0.16;"/>
    <g transform="matrix(0.74908,0,0,0.74908,158.142,90.3312)">
        <path d="M303.708,360L200.914,257.207C185.38,241.673 185.38,216.449 200.914,200.914C216.449,185.38 241.673,185.38 257.207,200.914L360,303.708C360,303.708 371.249,314.957 383.689,327.397C392.336,336.044 397.194,347.772 397.194,360C397.194,372.228 392.336,383.956 383.689,392.603C371.249,405.043 360,416.292 360,416.292L257.207,519.086C241.673,534.62 216.449,534.62 200.914,519.086C185.38,503.551 185.38,478.327 200.914,462.793L303.708,360Z" style="fill:rgb(188,188,188);"/>
    </g>
</svg>
